Rot-ProtoRoman102R-1.1.ufo
<glyph name="ampersand" format="2">
	<advance width="550"/>
	<unicode hex="0026"/>
	<outline>
		<contour>
			<point x="281" y="-10" type="curve"/>
			<point x="281" y="-10" type="line"/>
			<point x="373" y="-10"/>
			<point x="467" y="45"/>
			<point x="540" y="98" type="curve"/>
			<point x="526" y="115" type="line"/>
			<point x="456" y="67"/>
			<point x="377" y="33"/>
			<point x="279" y="33" type="curve"/>
			<point x="168" y="33"/>
			<point x="115" y="103"/>
			<point x="115" y="194" type="curve"/>
			<point x="115" y="278"/>
			<point x="165" y="329"/>
			<point x="205" y="329" type="curve"/>
			<point x="226" y="329"/>
			<point x="233" y="311"/>
			<point x="233" y="294" type="curve"/>
			<point x="233" y="256"/>
			<point x="221" y="225"/>
			<point x="153" y="195" type="curve"/>
			<point x="168" y="171" type="line"/>
			<point x="196" y="174"/>
			<point x="302" y="226"/>
			<point x="302" y="319" type="curve"/>
			<point x="302" y="347"/>
			<point x="300" y="401"/>
			<point x="313" y="425" type="curve"/>
			<point x="323" y="418"/>
			<point x="343" y="321"/>
			<point x="343" y="295" type="curve"/>
			<point x="359" y="273"/>
			<point x="383" y="264"/>
			<point x="427" y="264" type="curve"/>
			<point x="454" y="264"/>
			<point x="484" y="270"/>
			<point x="511" y="278" type="curve"/>
			<point x="511" y="295" type="line"/>
			<point x="478" y="298"/>
			<point x="446" y="302"/>
			<point x="427" y="320" type="curve"/>
			<point x="396" y="349"/>
			<point x="377" y="378"/>
			<point x="377" y="452" type="curve"/>
			<point x="343" y="457"/>
			<point x="267" y="475"/>
			<point x="244" y="489" type="curve"/>
			<point x="230" y="473" type="line"/>
			<point x="233" y="445"/>
			<point x="233" y="420"/>
			<point x="233" y="391" type="curve"/>
			<point x="228" y="392"/>
			<point x="223" y="392"/>
			<point x="217" y="392" type="curve"/>
			<point x="134" y="392"/>
			<point x="25" y="307"/>
			<point x="25" y="180" type="curve"/>
			<point x="25" y="43"/>
			<point x="145" y="-10"/>
		</contour>
	</outline>
</glyph>
<glyph name="period" format="2">
	<advance width="147"/>
	<unicode hex="002E"/>
	<outline>
		<contour>
			<point x="20" y="232" type="line"/>
			<point x="74" y="178" type="line"/>
			<point x="127" y="232" type="line"/>
			<point x="74" y="285" type="line"/>
		</contour>
	</outline>
</glyph>
<glyph name="A" format="2">
	<advance width="786"/>
	<unicode hex="0041"/>
	<outline>
		<contour>
			<point x="5" y="-15" type="line"/>
			<point x="55" y="-6"/>
			<point x="163" y="1"/>
			<point x="194" y="-3" type="curve"/>
			<point x="194" y="32" type="line"/>
			<point x="152" y="40"/>
			<point x="150" y="44"/>
			<point x="156" y="61" type="curve" smooth="yes"/>
			<point x="183" y="137"/>
			<point x="211" y="212"/>
			<point x="240" y="287" type="curve"/>
			<point x="532" y="287" type="line"/>
			<point x="549" y="238"/>
			<point x="565" y="194"/>
			<point x="579" y="157" type="curve" smooth="yes"/>
			<point x="615" y="59"/>
			<point x="615" y="57"/>
			<point x="560" y="25" type="curve"/>
			<point x="560" y="-3" type="line"/>
			<point x="610" y="0"/>
			<point x="736" y="1"/>
			<point x="781" y="-3" type="curve"/>
			<point x="781" y="35" type="line"/>
			<point x="745" y="42"/>
			<point x="742" y="40"/>
			<point x="726" y="75" type="curve" smooth="yes"/>
			<point x="618" y="311"/>
			<point x="481" y="622"/>
			<point x="455" y="700" type="curve"/>
			<point x="368" y="700" type="line"/>
			<point x="336" y="611"/>
			<point x="190" y="314"/>
			<point x="86" y="116" type="curve" smooth="yes"/>
			<point x="53" y="53"/>
			<point x="50" y="49"/>
			<point x="5" y="15" type="curve"/>
		</contour>
		<contour>
			<point x="269" y="359" type="line"/>
			<point x="308" y="454"/>
			<point x="349" y="548"/>
			<point x="394" y="644" type="curve"/>
			<point x="435" y="545"/>
			<point x="473" y="447"/>
			<point x="505" y="359" type="curve"/>
		</contour>
	</outline>
</glyph>
<glyph name="D" format="2">
	<advance width="842"/>
	<unicode hex="0044"/>
	<outline>
		<contour>
			<point x="84" y="14" type="curve"/>
			<point x="100" y="-12" type="line"/>
			<point x="178" y="13"/>
			<point x="262" y="0"/>
			<point x="413" y="0" type="curve"/>
			<point x="655" y="0"/>
			<point x="802" y="155"/>
			<point x="802" y="355" type="curve"/>
			<point x="802" y="575"/>
			<point x="647" y="703"/>
			<point x="437" y="703" type="curve"/>
			<point x="295" y="703"/>
			<point x="263" y="700"/>
			<point x="211" y="700" type="curve"/>
			<point x="167" y="700"/>
			<point x="100" y="703"/>
			<point x="78" y="705" type="curve"/>
			<point x="70" y="670" type="line"/>
			<point x="115" y="642"/>
			<point x="119" y="632"/>
			<point x="125" y="544" type="curve"/>
			<point x="128" y="498"/>
			<point x="125" y="278"/>
			<point x="121" y="109" type="curve"/>
			<point x="120" y="66"/>
			<point x="114" y="56"/>
		</contour>
		<contour>
			<point x="220" y="42" type="curve"/>
			<point x="220" y="42" type="line"/>
			<point x="220" y="664" type="line"/>
			<point x="491" y="683"/>
			<point x="696" y="615"/>
			<point x="696" y="350" type="curve"/>
			<point x="696" y="109"/>
			<point x="564" y="11"/>
		</contour>
	</outline>
</glyph>
<glyph name="E" format="2">
	<advance width="640"/>
	<unicode hex="0045"/>
	<outline>
		<contour>
			<point x="40" y="-3" type="line"/>
			<point x="92" y="-1"/>
			<point x="142" y="0"/>
			<point x="198" y="0" type="curve" smooth="yes"/>
			<point x="322" y="0"/>
			<point x="454" y="-1"/>
			<point x="600" y="-3" type="curve"/>
			<point x="600" y="127" type="line"/>
			<point x="566" y="127" type="line"/>
			<point x="560" y="64"/>
			<point x="537" y="40"/>
			<point x="442" y="40" type="curve" smooth="yes"/>
			<point x="223" y="40" type="line"/>
			<point x="217" y="133"/>
			<point x="214" y="234"/>
			<point x="214" y="340" type="curve"/>
			<point x="395" y="340" type="line" smooth="yes"/>
			<point x="491" y="340"/>
			<point x="498" y="316"/>
			<point x="515" y="240" type="curve"/>
			<point x="548" y="243" type="line"/>
			<point x="543" y="316"/>
			<point x="540" y="391"/>
			<point x="546" y="473" type="curve"/>
			<point x="511" y="473" type="line"/>
			<point x="502" y="405"/>
			<point x="506" y="380"/>
			<point x="406" y="380" type="curve" smooth="yes"/>
			<point x="214" y="380" type="line"/>
			<point x="214" y="471"/>
			<point x="216" y="565"/>
			<point x="219" y="660" type="curve"/>
			<point x="406" y="660" type="line" smooth="yes"/>
			<point x="526" y="660"/>
			<point x="526" y="657"/>
			<point x="556" y="588" type="curve"/>
			<point x="586" y="591" type="line"/>
			<point x="586" y="754" type="line"/>
			<point x="556" y="754" type="line"/>
			<point x="551" y="706"/>
			<point x="551" y="700"/>
			<point x="444" y="700" type="curve" smooth="yes"/>
			<point x="230" y="700"/>
			<point x="109" y="702"/>
			<point x="44" y="705" type="curve"/>
			<point x="41" y="670" type="line"/>
			<point x="118" y="660"/>
			<point x="116" y="660"/>
			<point x="121" y="545" type="curve" smooth="yes"/>
			<point x="123" y="498"/>
			<point x="126" y="296"/>
			<point x="120" y="156" type="curve" smooth="yes"/>
			<point x="115" y="45"/>
			<point x="117" y="45"/>
			<point x="40" y="37" type="curve"/>
		</contour>
	</outline>
</glyph>
<glyph name="F" format="2">
	<advance width="578"/>
	<unicode hex="0046"/>
	<outline>
		<contour>
			<point x="97" y="22" type="curve"/>
			<point x="97" y="-3" type="line"/>
			<point x="153" y="0"/>
			<point x="227" y="1"/>
			<point x="267" y="-3" type="curve"/>
			<point x="267" y="22" type="line"/>
			<point x="232" y="48"/>
			<point x="232" y="51"/>
			<point x="231" y="137" type="curve"/>
			<point x="230" y="195"/>
			<point x="229" y="253"/>
			<point x="229" y="311" type="curve"/>
			<point x="418" y="311" type="line" smooth="yes"/>
			<point x="495" y="311"/>
			<point x="495" y="312"/>
			<point x="509" y="273" type="curve"/>
			<point x="540" y="273" type="line"/>
			<point x="535" y="326"/>
			<point x="536" y="361"/>
			<point x="539" y="425" type="curve"/>
			<point x="511" y="425" type="line"/>
			<point x="497" y="351"/>
			<point x="490" y="351"/>
			<point x="421" y="351" type="curve"/>
			<point x="229" y="351" type="line"/>
			<point x="229" y="454"/>
			<point x="230" y="557"/>
			<point x="231" y="660" type="curve"/>
			<point x="388" y="660" type="line" smooth="yes"/>
			<point x="498" y="660"/>
			<point x="511" y="641"/>
			<point x="518" y="573" type="curve"/>
			<point x="548" y="573" type="line"/>
			<point x="548" y="700" type="line"/>
			<point x="183" y="700" type="line" smooth="yes"/>
			<point x="137" y="700"/>
			<point x="99" y="701"/>
			<point x="42" y="703" type="curve"/>
			<point x="40" y="668" type="line"/>
			<point x="135" y="664" type="line"/>
			<point x="140" y="493"/>
			<point x="137" y="235"/>
			<point x="134" y="137" type="curve"/>
			<point x="131" y="52"/>
			<point x="130" y="47"/>
		</contour>
	</outline>
</glyph>
<glyph name="G" format="2">
	<advance width="769"/>
	<unicode hex="0047"/>
	<outline>
		<contour>
			<point x="425" y="-10" type="curve" smooth="yes"/>
			<point x="543" y="-10"/>
			<point x="635" y="29"/>
			<point x="710" y="91" type="curve"/>
			<point x="702" y="142"/>
			<point x="703" y="193"/>
			<point x="703" y="244" type="curve" smooth="yes"/>
			<point x="703" y="304"/>
			<point x="703" y="306"/>
			<point x="729" y="312" type="curve"/>
			<point x="729" y="347" type="line"/>
			<point x="661" y="344"/>
			<point x="602" y="344"/>
			<point x="505" y="345" type="curve"/>
			<point x="505" y="310" type="line"/>
			<point x="609" y="305"/>
			<point x="611" y="305"/>
			<point x="611" y="215" type="curve" smooth="yes"/>
			<point x="611" y="92" type="line"/>
			<point x="575" y="62"/>
			<point x="522" y="26"/>
			<point x="420" y="26" type="curve" smooth="yes"/>
			<point x="237" y="26"/>
			<point x="146" y="146"/>
			<point x="146" y="354" type="curve" smooth="yes"/>
			<point x="146" y="525"/>
			<point x="219" y="675"/>
			<point x="411" y="675" type="curve" smooth="yes"/>
			<point x="544" y="675"/>
			<point x="632" y="568"/>
			<point x="632" y="434" type="curve"/>
			<point x="672" y="434" type="line"/>
			<point x="675" y="646" type="line"/>
			<point x="602" y="687"/>
			<point x="520" y="710"/>
			<point x="420" y="710" type="curve" smooth="yes"/>
			<point x="191" y="710"/>
			<point x="40" y="567"/>
			<point x="40" y="354" type="curve" smooth="yes"/>
			<point x="40" y="102"/>
			<point x="215" y="-10"/>
		</contour>
	</outline>
</glyph>
<glyph name="H" format="2">
	<advance width="901"/>
	<unicode hex="0048"/>
	<outline>
		<contour>
			<point x="320" y="-3" type="curve"/>
			<point x="320" y="-3" type="line"/>
			<point x="320" y="34" type="line"/>
			<point x="205" y="40"/>
			<point x="213" y="41"/>
			<point x="213" y="82" type="curve"/>
			<point x="213" y="332" type="line"/>
			<point x="693" y="332" type="line"/>
			<point x="693" y="74" type="line" smooth="yes"/>
			<point x="693" y="43"/>
			<point x="692" y="42"/>
			<point x="611" y="31" type="curve"/>
			<point x="611" y="-3" type="line"/>
			<point x="675" y="-1"/>
			<point x="786" y="0"/>
			<point x="826" y="-3" type="curve"/>
			<point x="826" y="31" type="line"/>
			<point x="789" y="43"/>
			<point x="789" y="43"/>
			<point x="789" y="67" type="curve"/>
			<point x="789" y="225"/>
			<point x="787" y="449"/>
			<point x="787" y="632" type="curve"/>
			<point x="787" y="663"/>
			<point x="787" y="662"/>
			<point x="861" y="667" type="curve"/>
			<point x="861" y="703" type="line"/>
			<point x="782" y="700"/>
			<point x="627" y="700"/>
			<point x="547" y="703" type="curve"/>
			<point x="547" y="666" type="line"/>
			<point x="693" y="659"/>
			<point x="693" y="659"/>
			<point x="693" y="618" type="curve"/>
			<point x="693" y="372" type="line"/>
			<point x="213" y="372" type="line"/>
			<point x="213" y="626" type="line" smooth="yes"/>
			<point x="213" y="657"/>
			<point x="214" y="658"/>
			<point x="237" y="669" type="curve"/>
			<point x="237" y="703" type="line"/>
			<point x="231" y="701"/>
			<point x="120" y="701"/>
			<point x="40" y="704" type="curve"/>
			<point x="40" y="670" type="line"/>
			<point x="117" y="658"/>
			<point x="117" y="658"/>
			<point x="117" y="634" type="curve"/>
			<point x="117" y="476"/>
			<point x="119" y="252"/>
			<point x="119" y="69" type="curve"/>
			<point x="119" y="38"/>
			<point x="118" y="38"/>
			<point x="85" y="34" type="curve"/>
			<point x="85" y="-2" type="line"/>
			<point x="124" y="1"/>
			<point x="270" y="0"/>
		</contour>
	</outline>
</glyph>
<glyph name="J" format="2">
	<advance width="529"/>
	<unicode hex="004A"/>
	<outline>
		<contour>
			<point x="217" y="-10" type="curve"/>
			<point x="217" y="-10" type="line"/>
			<point x="334" y="-10"/>
			<point x="414" y="65"/>
			<point x="414" y="205" type="curve"/>
			<point x="414" y="299"/>
			<point x="415" y="449"/>
			<point x="415" y="632" type="curve"/>
			<point x="415" y="663"/>
			<point x="425" y="662"/>
			<point x="499" y="667" type="curve"/>
			<point x="499" y="703" type="line"/>
			<point x="420" y="700"/>
			<point x="265" y="700"/>
			<point x="205" y="703" type="curve"/>
			<point x="205" y="666" type="line"/>
			<point x="331" y="659"/>
			<point x="321" y="659"/>
			<point x="321" y="618" type="curve"/>
			<point x="321" y="205" type="line" smooth="yes"/>
			<point x="321" y="98"/>
			<point x="272" y="52"/>
			<point x="188" y="52" type="curve"/>
			<point x="114" y="52"/>
			<point x="68" y="94"/>
			<point x="39" y="195" type="curve"/>
			<point x="5" y="183" type="line"/>
			<point x="30" y="90"/>
			<point x="76" y="-10"/>
		</contour>
	</outline>
</glyph>
<glyph name="K" format="2">
	<advance width="714"/>
	<unicode hex="004B"/>
	<outline>
		<contour>
			<point x="45" y="-3" type="line"/>
			<point x="124" y="0"/>
			<point x="269" y="0"/>
			<point x="319" y="-3" type="curve"/>
			<point x="319" y="34" type="line"/>
			<point x="204" y="40"/>
			<point x="203" y="41"/>
			<point x="203" y="82" type="curve" smooth="yes"/>
			<point x="203" y="342" type="line"/>
			<point x="457" y="108" type="line" smooth="yes"/>
			<point x="513" y="56"/>
			<point x="493" y="37"/>
			<point x="458" y="34" type="curve"/>
			<point x="458" y="-3" type="line"/>
			<point x="543" y="0"/>
			<point x="624" y="0"/>
			<point x="709" y="-3" type="curve"/>
			<point x="709" y="34" type="line"/>
			<point x="633" y="42"/>
			<point x="621" y="71"/>
			<point x="546" y="141" type="curve" smooth="yes"/>
			<point x="274" y="393" type="line"/>
			<point x="489" y="564" type="line" smooth="yes"/>
			<point x="574" y="632"/>
			<point x="600" y="656"/>
			<point x="673" y="663" type="curve"/>
			<point x="673" y="703" type="line"/>
			<point x="594" y="701"/>
			<point x="524" y="701"/>
			<point x="445" y="703" type="curve"/>
			<point x="445" y="669" type="line"/>
			<point x="506" y="661"/>
			<point x="521" y="649"/>
			<point x="460" y="599" type="curve" smooth="yes"/>
			<point x="203" y="390" type="line"/>
			<point x="203" y="626" type="line" smooth="yes"/>
			<point x="203" y="657"/>
			<point x="204" y="658"/>
			<point x="315" y="669" type="curve"/>
			<point x="315" y="703" type="line"/>
			<point x="221" y="701"/>
			<point x="120" y="700"/>
			<point x="40" y="703" type="curve"/>
			<point x="40" y="669" type="line"/>
			<point x="117" y="657"/>
			<point x="107" y="657"/>
			<point x="107" y="633" type="curve" smooth="yes"/>
			<point x="109" y="68" type="line" smooth="yes"/>
			<point x="109" y="37"/>
			<point x="118" y="37"/>
			<point x="45" y="33" type="curve"/>
		</contour>
	</outline>
</glyph>
<glyph name="M" format="2">
	<advance width="1037"/>
	<unicode hex="004D"/>
	<outline>
		<contour>
			<point x="481" y="-3" type="curve"/>
			<point x="513" y="-6" type="line"/>
			<point x="704" y="505" type="line"/>
			<point x="796" y="124" type="line" smooth="yes"/>
			<point x="813" y="54"/>
			<point x="806" y="42"/>
			<point x="766" y="32" type="curve"/>
			<point x="766" y="-3" type="line"/>
			<point x="845" y="1"/>
			<point x="966" y="0"/>
			<point x="1022" y="-3" type="curve"/>
			<point x="1022" y="32" type="line"/>
			<point x="911" y="37"/>
			<point x="918" y="48"/>
			<point x="897" y="136" type="curve"/>
			<point x="773" y="666" type="line"/>
			<point x="883" y="668" type="line"/>
			<point x="883" y="703" type="line"/>
			<point x="822" y="699"/>
			<point x="655" y="700"/>
			<point x="569" y="703" type="curve"/>
			<point x="569" y="668" type="line"/>
			<point x="645" y="663"/>
			<point x="665" y="648"/>
			<point x="685" y="580" type="curve"/>
			<point x="524" y="181" type="line"/>
			<point x="308" y="703" type="line"/>
			<point x="249" y="700"/>
			<point x="133" y="699"/>
			<point x="94" y="703" type="curve"/>
			<point x="94" y="668" type="line"/>
			<point x="207" y="655"/>
			<point x="220" y="646"/>
			<point x="243" y="587" type="curve"/>
			<point x="246" y="580" type="line"/>
			<point x="104" y="136" type="line" smooth="yes"/>
			<point x="82" y="66"/>
			<point x="56" y="40"/>
			<point x="25" y="32" type="curve"/>
			<point x="25" y="-3" type="line"/>
			<point x="91" y="1"/>
			<point x="211" y="0"/>
			<point x="283" y="-3" type="curve"/>
			<point x="283" y="32" type="line"/>
			<point x="178" y="35"/>
			<point x="156" y="55"/>
			<point x="183" y="161" type="curve"/>
			<point x="273" y="516" type="line"/>
			<point x="335" y="375"/>
			<point x="441" y="152"/>
		</contour>
	</outline>
</glyph>
<glyph name="N" format="2">
	<advance width="877"/>
	<unicode hex="004E"/>
	<outline>
		<contour>
			<point x="46" y="-3" type="line"/>
			<point x="120" y="1"/>
			<point x="242" y="1"/>
			<point x="308" y="-3" type="curve"/>
			<point x="308" y="32" type="line"/>
			<point x="193" y="40"/>
			<point x="190" y="34"/>
			<point x="188" y="93" type="curve" smooth="yes"/>
			<point x="174" y="536" type="line"/>
			<point x="356" y="363"/>
			<point x="540" y="182"/>
			<point x="712" y="2" type="curve"/>
			<point x="772" y="-2" type="line"/>
			<point x="766" y="170"/>
			<point x="773" y="402"/>
			<point x="777" y="604" type="curve" smooth="yes"/>
			<point x="778" y="660"/>
			<point x="774" y="661"/>
			<point x="837" y="668" type="curve"/>
			<point x="837" y="703" type="line"/>
			<point x="796" y="700"/>
			<point x="640" y="699"/>
			<point x="574" y="703" type="curve"/>
			<point x="574" y="668" type="line"/>
			<point x="674" y="661"/>
			<point x="698" y="666"/>
			<point x="700" y="574" type="curve" smooth="yes"/>
			<point x="709" y="144" type="line"/>
			<point x="191" y="658" type="line"/>
			<point x="308" y="670" type="line"/>
			<point x="308" y="703" type="line"/>
			<point x="233" y="700"/>
			<point x="104" y="699"/>
			<point x="40" y="703" type="curve"/>
			<point x="40" y="668" type="line"/>
			<point x="121" y="662"/>
			<point x="118" y="665"/>
			<point x="116" y="575" type="curve" smooth="yes"/>
			<point x="105" y="85" type="line" smooth="yes"/>
			<point x="104" y="33"/>
			<point x="86" y="42"/>
			<point x="46" y="32" type="curve"/>
		</contour>
	</outline>
</glyph>
<glyph name="O" format="2">
	<advance width="882"/>
	<unicode hex="004F"/>
	<outline>
		<contour>
			<point x="441" y="-10" type="curve"/>
			<point x="441" y="-10" type="line"/>
			<point x="654" y="-10"/>
			<point x="842" y="133"/>
			<point x="842" y="351" type="curve"/>
			<point x="842" y="577"/>
			<point x="644" y="710"/>
			<point x="441" y="710" type="curve"/>
			<point x="237" y="710"/>
			<point x="40" y="567"/>
			<point x="40" y="351" type="curve"/>
			<point x="40" y="133"/>
			<point x="227" y="-10"/>
		</contour>
		<contour>
			<point x="437" y="29" type="curve"/>
			<point x="437" y="29" type="line"/>
			<point x="269" y="29"/>
			<point x="148" y="167"/>
			<point x="148" y="326" type="curve"/>
			<point x="148" y="497"/>
			<point x="242" y="672"/>
			<point x="451" y="672" type="curve"/>
			<point x="626" y="672"/>
			<point x="737" y="525"/>
			<point x="737" y="350" type="curve"/>
			<point x="737" y="188"/>
			<point x="635" y="29"/>
		</contour>
	</outline>
</glyph>
<glyph name="Q" format="2">
	<advance width="1010"/>
	<unicode hex="0051"/>
	<outline>
		<contour>
			<point x="580" y="-200" type="curve"/>
			<point x="580" y="-200" type="line"/>
			<point x="748" y="-200"/>
			<point x="867" y="-32"/>
			<point x="960" y="-32" type="curve"/>
			<point x="997" y="-32"/>
			<point x="1003" y="-63"/>
			<point x="1012" y="-86" type="curve"/>
			<point x="1040" y="-80" type="line"/>
			<point x="1024" y="15" type="line"/>
			<point x="848" y="23"/>
			<point x="785" y="-113"/>
			<point x="607" y="-113" type="curve"/>
			<point x="522" y="-113"/>
			<point x="469" y="-59"/>
			<point x="461" y="-5" type="curve"/>
			<point x="645" y="21"/>
			<point x="794" y="156"/>
			<point x="794" y="351" type="curve"/>
			<point x="794" y="567"/>
			<point x="597" y="710"/>
			<point x="393" y="710" type="curve"/>
			<point x="256" y="710"/>
			<point x="116" y="649"/>
			<point x="40" y="540" type="curve"/>
			<point x="43" y="158" type="line"/>
			<point x="108" y="65"/>
			<point x="219" y="6"/>
			<point x="340" y="-7" type="curve"/>
			<point x="375" y="-135"/>
			<point x="476" y="-200"/>
		</contour>
		<contour>
			<point x="397" y="29" type="curve"/>
			<point x="397" y="29" type="line"/>
			<point x="199" y="29"/>
			<point x="107" y="188"/>
			<point x="107" y="350" type="curve"/>
			<point x="107" y="525"/>
			<point x="208" y="672"/>
			<point x="383" y="672" type="curve"/>
			<point x="592" y="672"/>
			<point x="676" y="497"/>
			<point x="676" y="326" type="curve"/>
			<point x="676" y="167"/>
			<point x="565" y="29"/>
		</contour>
	</outline>
</glyph>
<glyph name="R" format="2">
	<advance width="780"/>
	<unicode hex="0052"/>
	<outline>
		<contour>
			<point x="618" y="-5" type="curve" smooth="yes"/>
			<point x="710" y="-5"/>
			<point x="749" y="17"/>
			<point x="770" y="33" type="curve"/>
			<point x="770" y="128" type="line"/>
			<point x="750" y="131" type="line"/>
			<point x="722" y="99"/>
			<point x="666" y="85"/>
			<point x="634" y="85" type="curve" smooth="yes"/>
			<point x="512" y="85"/>
			<point x="418" y="206"/>
			<point x="385" y="300" type="curve"/>
			<point x="466" y="322"/>
			<point x="571" y="381"/>
			<point x="571" y="500" type="curve" smooth="yes"/>
			<point x="571" y="676"/>
			<point x="403" y="700"/>
			<point x="295" y="700" type="curve" smooth="yes"/>
			<point x="242" y="700"/>
			<point x="77" y="702"/>
			<point x="40" y="703" type="curve"/>
			<point x="40" y="668" type="line"/>
			<point x="109" y="662"/>
			<point x="107" y="662"/>
			<point x="107" y="613" type="curve" smooth="yes"/>
			<point x="109" y="78" type="line" smooth="yes"/>
			<point x="109" y="37"/>
			<point x="118" y="37"/>
			<point x="45" y="33" type="curve"/>
			<point x="45" y="-3" type="line"/>
			<point x="124" y="0"/>
			<point x="279" y="0"/>
			<point x="279" y="-3" type="curve" smooth="yes"/>
			<point x="279" y="32" type="line"/>
			<point x="196" y="35"/>
			<point x="203" y="39"/>
			<point x="203" y="80" type="curve" smooth="yes"/>
			<point x="203" y="287" type="line"/>
			<point x="290" y="287" type="line"/>
			<point x="345" y="178"/>
			<point x="434" y="-5"/>
		</contour>
		<contour>
			<point x="203" y="322" type="line"/>
			<point x="203" y="666" type="line"/>
			<point x="325" y="682"/>
			<point x="466" y="641"/>
			<point x="466" y="496" type="curve" smooth="yes"/>
			<point x="466" y="391"/>
			<point x="394" y="322"/>
			<point x="243" y="322" type="curve" smooth="yes"/>
		</contour>
	</outline>
</glyph>
<glyph name="S" format="2">
	<advance width="597"/>
	<unicode hex="0053"/>
	<outline>
		<contour>
			<point x="309" y="-9" type="curve"/>
			<point x="309" y="-9" type="line"/>
			<point x="450" y="-9"/>
			<point x="557" y="61"/>
			<point x="557" y="191" type="curve"/>
			<point x="557" y="315"/>
			<point x="484" y="364"/>
			<point x="325" y="402" type="curve"/>
			<point x="185" y="435"/>
			<point x="119" y="461"/>
			<point x="119" y="544" type="curve"/>
			<point x="119" y="609"/>
			<point x="186" y="670"/>
			<point x="287" y="670" type="curve"/>
			<point x="403" y="670"/>
			<point x="491" y="590"/>
			<point x="508" y="488" type="curve"/>
			<point x="543" y="488" type="line"/>
			<point x="534" y="557"/>
			<point x="521" y="614"/>
			<point x="525" y="694" type="curve"/>
			<point x="452" y="700"/>
			<point x="391" y="710"/>
			<point x="326" y="710" type="curve"/>
			<point x="166" y="710"/>
			<point x="40" y="655"/>
			<point x="40" y="505" type="curve"/>
			<point x="40" y="386"/>
			<point x="109" y="341"/>
			<point x="271" y="305" type="curve"/>
			<point x="400" y="276"/>
			<point x="476" y="247"/>
			<point x="476" y="156" type="curve"/>
			<point x="476" y="80"/>
			<point x="410" y="30"/>
			<point x="298" y="31" type="curve"/>
			<point x="186" y="32"/>
			<point x="127" y="100"/>
			<point x="106" y="210" type="curve"/>
			<point x="72" y="210" type="line"/>
			<point x="82" y="17" type="line"/>
			<point x="130" y="9"/>
			<point x="229" y="-9"/>
		</contour>
	</outline>
</glyph>
<glyph name="T" format="2">
	<advance width="674"/>
	<unicode hex="0054"/>
	<outline>
		<contour>
			<point x="211" y="-3" type="line"/>
			<point x="285" y="0"/>
			<point x="436" y="1"/>
			<point x="517" y="-3" type="curve"/>
			<point x="517" y="32" type="line"/>
			<point x="385" y="41"/>
			<point x="385" y="41"/>
			<point x="385" y="107" type="curve" smooth="yes"/>
			<point x="385" y="607" type="line"/>
			<point x="550" y="607" type="line" smooth="yes"/>
			<point x="618" y="607"/>
			<point x="611" y="606"/>
			<point x="636" y="519" type="curve"/>
			<point x="669" y="526" type="line"/>
			<point x="629" y="734" type="line"/>
			<point x="583" y="730" type="line"/>
			<point x="597" y="670"/>
			<point x="598" y="670"/>
			<point x="519" y="670" type="curve" smooth="yes"/>
			<point x="115" y="670" type="line" smooth="yes"/>
			<point x="54" y="670"/>
			<point x="50" y="678"/>
			<point x="50" y="726" type="curve"/>
			<point x="10" y="726" type="line"/>
			<point x="12" y="516" type="line"/>
			<point x="47" y="516" type="line"/>
			<point x="53" y="600"/>
			<point x="47" y="607"/>
			<point x="125" y="607" type="curve" smooth="yes"/>
			<point x="290" y="607" type="line"/>
			<point x="290" y="149" type="line" smooth="yes"/>
			<point x="290" y="40"/>
			<point x="290" y="40"/>
			<point x="211" y="32" type="curve"/>
		</contour>
	</outline>
</glyph>
<glyph name="U" format="2">
	<advance width="829"/>
	<unicode hex="0055"/>
	<outline>
		<contour>
			<point x="439" y="-10" type="curve"/>
			<point x="439" y="-10" type="line"/>
			<point x="620" y="-10"/>
			<point x="735" y="112"/>
			<point x="735" y="263" type="curve"/>
			<point x="735" y="623" type="line" smooth="yes"/>
			<point x="735" y="663"/>
			<point x="736" y="662"/>
			<point x="809" y="667" type="curve"/>
			<point x="809" y="703" type="line"/>
			<point x="730" y="700"/>
			<point x="612" y="700"/>
			<point x="572" y="703" type="curve"/>
			<point x="572" y="666" type="line"/>
			<point x="678" y="659"/>
			<point x="678" y="659"/>
			<point x="678" y="618" type="curve"/>
			<point x="678" y="269" type="line" smooth="yes"/>
			<point x="678" y="108"/>
			<point x="564" y="36"/>
			<point x="444" y="36" type="curve"/>
			<point x="265" y="36"/>
			<point x="203" y="128"/>
			<point x="203" y="276" type="curve"/>
			<point x="203" y="627" type="line" smooth="yes"/>
			<point x="203" y="658"/>
			<point x="244" y="658"/>
			<point x="325" y="669" type="curve"/>
			<point x="325" y="703" type="line"/>
			<point x="261" y="701"/>
			<point x="110" y="701"/>
			<point x="30" y="704" type="curve"/>
			<point x="30" y="670" type="line"/>
			<point x="107" y="658"/>
			<point x="107" y="661"/>
			<point x="107" y="627" type="curve"/>
			<point x="107" y="254" type="line" smooth="yes"/>
			<point x="107" y="101"/>
			<point x="189" y="-10"/>
		</contour>
	</outline>
</glyph>
<glyph name="V" format="2">
	<advance width="857"/>
	<unicode hex="0056"/>
	<outline>
		<contour>
			<point x="401" y="-7" type="curve"/>
			<point x="401" y="-7" type="line"/>
			<point x="459" y="-2" type="line"/>
			<point x="757" y="601" type="line" smooth="yes"/>
			<point x="784" y="656"/>
			<point x="792" y="668"/>
			<point x="852" y="668" type="curve"/>
			<point x="852" y="703" type="line"/>
			<point x="760" y="700"/>
			<point x="702" y="699"/>
			<point x="608" y="703" type="curve"/>
			<point x="608" y="668" type="line"/>
			<point x="720" y="662"/>
			<point x="700" y="654"/>
			<point x="661" y="565" type="curve"/>
			<point x="453" y="89" type="line"/>
			<point x="204" y="564" type="line" smooth="yes"/>
			<point x="164" y="640"/>
			<point x="162" y="646"/>
			<point x="244" y="673" type="curve"/>
			<point x="238" y="708" type="line"/>
			<point x="5" y="692" type="line"/>
			<point x="7" y="663" type="line"/>
			<point x="38" y="645"/>
			<point x="58" y="617"/>
			<point x="103" y="532" type="curve"/>
			<point x="190" y="367"/>
			<point x="365" y="60"/>
		</contour>
	</outline>
</glyph>
<glyph name="W" format="2">
	<advance width="1197"/>
	<unicode hex="0057"/>
	<outline>
		<contour>
			<point x="361" y="-7" type="curve"/>
			<point x="419" y="-2" type="line"/>
			<point x="575" y="363" type="line"/>
			<point x="741" y="-7" type="line"/>
			<point x="799" y="-2" type="line"/>
			<point x="1097" y="601" type="line" smooth="yes"/>
			<point x="1124" y="656"/>
			<point x="1132" y="668"/>
			<point x="1192" y="668" type="curve"/>
			<point x="1192" y="703" type="line"/>
			<point x="1100" y="700"/>
			<point x="1042" y="699"/>
			<point x="948" y="703" type="curve"/>
			<point x="948" y="668" type="line"/>
			<point x="1060" y="662"/>
			<point x="1040" y="654"/>
			<point x="1001" y="565" type="curve" smooth="yes"/>
			<point x="798" y="100" type="line"/>
			<point x="630" y="491" type="line"/>
			<point x="677" y="601" type="line" smooth="yes"/>
			<point x="701" y="657"/>
			<point x="712" y="668"/>
			<point x="772" y="668" type="curve"/>
			<point x="772" y="703" type="line"/>
			<point x="680" y="700"/>
			<point x="622" y="699"/>
			<point x="528" y="703" type="curve"/>
			<point x="528" y="668" type="line"/>
			<point x="640" y="662"/>
			<point x="616" y="657"/>
			<point x="583" y="565" type="curve" smooth="yes"/>
			<point x="418" y="111" type="line"/>
			<point x="211" y="564" type="line" smooth="yes"/>
			<point x="175" y="644"/>
			<point x="167" y="646"/>
			<point x="249" y="673" type="curve"/>
			<point x="245" y="708" type="line"/>
			<point x="5" y="690" type="line"/>
			<point x="7" y="661" type="line"/>
			<point x="38" y="643"/>
			<point x="58" y="617"/>
			<point x="103" y="532" type="curve" smooth="yes"/>
			<point x="190" y="367"/>
			<point x="325" y="60"/>
		</contour>
	</outline>
</glyph>
<glyph name="X" format="2">
	<advance width="903"/>
	<unicode hex="0058"/>
	<outline>
		<contour>
			<point x="15" y="32" type="curve"/>
			<point x="15" y="-3" type="line"/>
			<point x="108" y="1"/>
			<point x="228" y="0"/>
			<point x="309" y="-3" type="curve"/>
			<point x="309" y="32" type="line"/>
			<point x="215" y="37"/>
			<point x="213" y="36"/>
			<point x="268" y="104" type="curve"/>
			<point x="440" y="316" type="line"/>
			<point x="623" y="90" type="line" smooth="yes"/>
			<point x="661" y="44"/>
			<point x="670" y="37"/>
			<point x="609" y="32" type="curve"/>
			<point x="609" y="-3" type="line"/>
			<point x="698" y="0"/>
			<point x="815" y="1"/>
			<point x="898" y="-3" type="curve"/>
			<point x="898" y="32" type="line"/>
			<point x="792" y="36"/>
			<point x="794" y="38"/>
			<point x="693" y="155" type="curve"/>
			<point x="503" y="374" type="line"/>
			<point x="651" y="547" type="line" smooth="yes"/>
			<point x="746" y="658"/>
			<point x="748" y="657"/>
			<point x="869" y="668" type="curve"/>
			<point x="869" y="703" type="line"/>
			<point x="776" y="699"/>
			<point x="656" y="700"/>
			<point x="569" y="703" type="curve"/>
			<point x="569" y="669" type="line"/>
			<point x="652" y="660"/>
			<point x="661" y="654"/>
			<point x="621" y="603" type="curve"/>
			<point x="471" y="414" type="line"/>
			<point x="299" y="613" type="line" smooth="yes"/>
			<point x="261" y="657"/>
			<point x="255" y="666"/>
			<point x="310" y="668" type="curve"/>
			<point x="310" y="703" type="line"/>
			<point x="228" y="700"/>
			<point x="87" y="699"/>
			<point x="21" y="703" type="curve"/>
			<point x="21" y="668" type="line"/>
			<point x="145" y="656"/>
			<point x="139" y="649"/>
			<point x="240" y="537" type="curve"/>
			<point x="405" y="353" type="line"/>
			<point x="238" y="170" type="line" smooth="yes"/>
			<point x="126" y="48"/>
			<point x="146" y="38"/>
		</contour>
	</outline>
</glyph>
<glyph name="Y" format="2">
	<advance width="684"/>
	<unicode hex="0059"/>
	<outline>
		<contour>
			<point x="232" y="-3" type="line"/>
			<point x="321" y="0"/>
			<point x="392" y="0"/>
			<point x="486" y="-3" type="curve"/>
			<point x="486" y="32" type="line"/>
			<point x="401" y="38"/>
			<point x="400" y="39"/>
			<point x="400" y="80" type="curve" smooth="yes"/>
			<point x="400" y="270" type="line"/>
			<point x="570" y="569" type="line" smooth="yes"/>
			<point x="609" y="637"/>
			<point x="630" y="653"/>
			<point x="679" y="666" type="curve"/>
			<point x="679" y="702" type="line"/>
			<point x="611" y="698"/>
			<point x="553" y="698"/>
			<point x="455" y="702" type="curve"/>
			<point x="455" y="666" type="line"/>
			<point x="533" y="657"/>
			<point x="560" y="645"/>
			<point x="512" y="560" type="curve" smooth="yes"/>
			<point x="382" y="331" type="line"/>
			<point x="235" y="580" type="line" smooth="yes"/>
			<point x="194" y="649"/>
			<point x="214" y="660"/>
			<point x="276" y="667" type="curve"/>
			<point x="276" y="703" type="line"/>
			<point x="186" y="697"/>
			<point x="105" y="697"/>
			<point x="5" y="703" type="curve"/>
			<point x="5" y="667" type="line"/>
			<point x="67" y="656"/>
			<point x="90" y="649"/>
			<point x="137" y="567" type="curve" smooth="yes"/>
			<point x="305" y="274" type="line"/>
			<point x="306" y="86" type="line" smooth="yes"/>
			<point x="306" y="35"/>
			<point x="305" y="36"/>
			<point x="232" y="32" type="curve"/>
		</contour>
	</outline>
</glyph>
<glyph name="Z" format="2">
	<advance width="714"/>
	<unicode hex="005A"/>
	<outline>
		<contour>
			<point x="657" y="-3" type="curve"/>
			<point x="657" y="-3" type="line"/>
			<point x="656" y="76"/>
			<point x="658" y="150"/>
			<point x="667" y="224" type="curve"/>
			<point x="632" y="225" type="line"/>
			<point x="605" y="98"/>
			<point x="575" y="51"/>
			<point x="419" y="46" type="curve"/>
			<point x="162" y="37" type="line"/>
			<point x="343" y="266"/>
			<point x="625" y="644"/>
			<point x="694" y="678" type="curve"/>
			<point x="681" y="714" type="line"/>
			<point x="668" y="707"/>
			<point x="322" y="703"/>
			<point x="83" y="701" type="curve"/>
			<point x="79" y="626"/>
			<point x="70" y="557"/>
			<point x="64" y="482" type="curve"/>
			<point x="99" y="479" type="line"/>
			<point x="149" y="643"/>
			<point x="210" y="655"/>
			<point x="347" y="658" type="curve"/>
			<point x="540" y="663" type="line"/>
			<point x="20" y="19" type="line"/>
			<point x="26" y="-2" type="line"/>
			<point x="229" y="1"/>
			<point x="454" y="4"/>
		</contour>
	</outline>
</glyph>
<glyph name="a" format="2">
	<advance width="361"/>
	<unicode hex="0061"/>
	<outline>
		<contour>
			<point x="94" y="-10" type="curve" smooth="yes"/>
			<point x="141" y="-10"/>
			<point x="199" y="35"/>
			<point x="230" y="61" type="curve"/>
			<point x="238" y="-10" type="line"/>
			<point x="281" y="-6"/>
			<point x="309" y="-3"/>
			<point x="356" y="1" type="curve"/>
			<point x="356" y="26" type="line"/>
			<point x="310" y="34"/>
			<point x="304" y="48"/>
			<point x="304" y="98" type="curve" smooth="yes"/>
			<point x="304" y="137"/>
			<point x="306" y="199"/>
			<point x="308" y="276" type="curve" smooth="yes"/>
			<point x="310" y="336"/>
			<point x="238" y="381"/>
			<point x="174" y="381" type="curve" smooth="yes"/>
			<point x="91" y="381"/>
			<point x="29" y="328"/>
			<point x="15" y="278" type="curve"/>
			<point x="18" y="265" type="line"/>
			<point x="127" y="289" type="line"/>
			<point x="126" y="301" type="line"/>
			<point x="107" y="306"/>
			<point x="102" y="310"/>
			<point x="102" y="321" type="curve" smooth="yes"/>
			<point x="102" y="339"/>
			<point x="121" y="351"/>
			<point x="149" y="351" type="curve" smooth="yes"/>
			<point x="203" y="351"/>
			<point x="226" y="320"/>
			<point x="226" y="260" type="curve" smooth="yes"/>
			<point x="226" y="216" type="line"/>
			<point x="136" y="205"/>
			<point x="57" y="175"/>
			<point x="19" y="127" type="curve"/>
			<point x="4" y="68"/>
			<point x="34" y="-10"/>
		</contour>
		<contour>
			<point x="148" y="50" type="curve" smooth="yes"/>
			<point x="108" y="50"/>
			<point x="89" y="88"/>
			<point x="99" y="128" type="curve"/>
			<point x="117" y="161"/>
			<point x="168" y="188"/>
			<point x="226" y="186" type="curve"/>
			<point x="226" y="95" type="line"/>
			<point x="208" y="74"/>
			<point x="182" y="50"/>
		</contour>
	</outline>
</glyph>
<glyph name="b" format="2">
	<advance width="466"/>
	<unicode hex="0062"/>
	<outline>
		<contour>
			<point x="215" y="-10" type="curve"/>
			<point x="333" y="12"/>
			<point x="441" y="88"/>
			<point x="441" y="200" type="curve" smooth="yes"/>
			<point x="441" y="320"/>
			<point x="350" y="383"/>
			<point x="250" y="383" type="curve"/>
			<point x="203" y="366"/>
			<point x="165" y="348"/>
			<point x="118" y="323" type="curve"/>
			<point x="118" y="394" type="line" smooth="yes"/>
			<point x="118" y="555"/>
			<point x="122" y="612"/>
			<point x="128" y="673" type="curve"/>
			<point x="115" y="679" type="line"/>
			<point x="82" y="643"/>
			<point x="60" y="628"/>
			<point x="30" y="599" type="curve"/>
			<point x="43" y="466"/>
			<point x="42" y="252"/>
			<point x="38" y="76" type="curve"/>
			<point x="73" y="20"/>
			<point x="181" y="-10"/>
		</contour>
		<contour>
			<point x="259" y="28" type="curve"/>
			<point x="181" y="28"/>
			<point x="128" y="69"/>
			<point x="118" y="110" type="curve"/>
			<point x="118" y="284" type="line"/>
			<point x="142" y="316"/>
			<point x="196" y="337"/>
			<point x="231" y="337" type="curve" smooth="yes"/>
			<point x="301" y="337"/>
			<point x="370" y="277"/>
			<point x="370" y="187" type="curve" smooth="yes"/>
			<point x="370" y="103"/>
			<point x="323" y="58"/>
		</contour>
	</outline>
</glyph>
<glyph name="c" format="2">
	<advance width="375"/>
	<unicode hex="0063"/>
	<outline>
		<contour>
			<point x="201" y="-10" type="curve"/>
			<point x="201" y="-10" type="line"/>
			<point x="282" y="-10"/>
			<point x="335" y="41"/>
			<point x="351" y="76" type="curve"/>
			<point x="332" y="91" type="line"/>
			<point x="313" y="58"/>
			<point x="285" y="35"/>
			<point x="229" y="35" type="curve"/>
			<point x="155" y="35"/>
			<point x="100" y="93"/>
			<point x="100" y="189" type="curve"/>
			<point x="100" y="254"/>
			<point x="123" y="295"/>
			<point x="154" y="315" type="curve"/>
			<point x="209" y="309"/>
			<point x="268" y="307"/>
			<point x="326" y="307" type="curve"/>
			<point x="370" y="370" type="line"/>
			<point x="368" y="373" type="line"/>
			<point x="329" y="371"/>
			<point x="229" y="378"/>
			<point x="185" y="378" type="curve"/>
			<point x="161" y="378"/>
			<point x="25" y="309"/>
			<point x="25" y="164" type="curve"/>
			<point x="25" y="54"/>
			<point x="92" y="-10"/>
		</contour>
	</outline>
</glyph>
<glyph name="d" format="2">
	<advance width="513"/>
	<unicode hex="0064"/>
	<outline>
		<contour>
			<point x="353" y="-27" type="line"/>
			<point x="397" y="-9"/>
			<point x="442" y="8"/>
			<point x="498" y="22" type="curve"/>
			<point x="498" y="40" type="line"/>
			<point x="441" y="53"/>
			<point x="431" y="61"/>
			<point x="432" y="129" type="curve" smooth="yes"/>
			<point x="437" y="460"/>
			<point x="429" y="240"/>
			<point x="439" y="571" type="curve" smooth="yes"/>
			<point x="442" y="668"/>
			<point x="444" y="672"/>
			<point x="480" y="673" type="curve"/>
			<point x="480" y="703" type="line"/>
			<point x="427" y="699"/>
			<point x="303" y="699"/>
			<point x="252" y="703" type="curve"/>
			<point x="252" y="674" type="line"/>
			<point x="355" y="672"/>
			<point x="355" y="672"/>
			<point x="355" y="607" type="curve" smooth="yes"/>
			<point x="355" y="557"/>
			<point x="354" y="461"/>
			<point x="354" y="363" type="curve"/>
			<point x="305" y="374"/>
			<point x="266" y="381"/>
			<point x="257" y="381" type="curve" smooth="yes"/>
			<point x="117" y="381"/>
			<point x="25" y="291"/>
			<point x="25" y="176" type="curve" smooth="yes"/>
			<point x="25" y="46"/>
			<point x="116" y="-10"/>
			<point x="241" y="-10" type="curve"/>
			<point x="294" y="19"/>
			<point x="327" y="40"/>
			<point x="359" y="57" type="curve"/>
			<point x="348" y="-22" type="line"/>
		</contour>
		<contour>
			<point x="245" y="39" type="curve" smooth="yes"/>
			<point x="153" y="39"/>
			<point x="102" y="106"/>
			<point x="102" y="186" type="curve" smooth="yes"/>
			<point x="102" y="286"/>
			<point x="164" y="349"/>
			<point x="244" y="349" type="curve" smooth="yes"/>
			<point x="287" y="349"/>
			<point x="331" y="329"/>
			<point x="353" y="271" type="curve"/>
			<point x="353" y="214"/>
			<point x="353" y="162"/>
			<point x="352" y="126" type="curve"/>
			<point x="346" y="70"/>
			<point x="289" y="39"/>
		</contour>
	</outline>
</glyph>
<glyph name="e" format="2">
	<advance width="412"/>
	<unicode hex="0065"/>
	<outline>
		<contour>
			<point x="223" y="-10" type="curve" smooth="yes"/>
			<point x="261" y="-10"/>
			<point x="357" y="40"/>
			<point x="402" y="108" type="curve"/>
			<point x="381" y="120" type="line"/>
			<point x="350" y="76"/>
			<point x="307" y="45"/>
			<point x="248" y="45" type="curve" smooth="yes"/>
			<point x="184" y="45"/>
			<point x="134" y="85"/>
			<point x="116" y="153" type="curve"/>
			<point x="370" y="313" type="line"/>
			<point x="370" y="327" type="line"/>
			<point x="327" y="342"/>
			<point x="227" y="381"/>
			<point x="214" y="381" type="curve"/>
			<point x="127" y="361"/>
			<point x="55" y="305"/>
			<point x="40" y="272" type="curve"/>
			<point x="32" y="246"/>
			<point x="25" y="217"/>
			<point x="25" y="179" type="curve" smooth="yes"/>
			<point x="25" y="62"/>
			<point x="108" y="-10"/>
		</contour>
		<contour>
			<point x="110" y="183" type="line"/>
			<point x="109" y="193"/>
			<point x="108" y="203"/>
			<point x="108" y="214" type="curve" smooth="yes"/>
			<point x="108" y="257"/>
			<point x="112" y="299"/>
			<point x="138" y="324" type="curve"/>
			<point x="183" y="328"/>
			<point x="242" y="313"/>
			<point x="265" y="280" type="curve"/>
		</contour>
	</outline>
</glyph>
<glyph name="f" format="2">
	<advance width="291"/>
	<unicode hex="0066"/>
	<outline>
		<contour>
			<point x="15" y="18" type="curve"/>
			<point x="15" y="-2" type="line"/>
			<point x="78" y="0"/>
			<point x="136" y="0"/>
			<point x="203" y="-2" type="curve"/>
			<point x="203" y="23" type="line"/>
			<point x="140" y="32"/>
			<point x="139" y="37"/>
			<point x="139" y="92" type="curve"/>
			<point x="139" y="314" type="line"/>
			<point x="256" y="314" type="line"/>
			<point x="288" y="349" type="line"/>
			<point x="290" y="358" type="line"/>
			<point x="289" y="360" type="line"/>
			<point x="141" y="360" type="line"/>
			<point x="136" y="469"/>
			<point x="137" y="577"/>
			<point x="160" y="616" type="curve"/>
			<point x="205" y="626"/>
			<point x="254" y="618"/>
			<point x="288" y="600" type="curve"/>
			<point x="321" y="669" type="line"/>
			<point x="299" y="680"/>
			<point x="245" y="679"/>
			<point x="213" y="679" type="curve"/>
			<point x="177" y="659"/>
			<point x="64" y="605"/>
			<point x="64" y="465" type="curve"/>
			<point x="64" y="411"/>
			<point x="67" y="374"/>
			<point x="16" y="335" type="curve"/>
			<point x="16" y="314" type="line"/>
			<point x="60" y="314" type="line"/>
			<point x="60" y="95" type="line" smooth="yes"/>
			<point x="60" y="29"/>
			<point x="60" y="29"/>
		</contour>
	</outline>
</glyph>
<glyph name="g" format="2">
	<advance width="418"/>
	<unicode hex="0067"/>
	<outline>
		<contour>
			<point x="207" y="-290" type="curve"/>
			<point x="207" y="-290" type="line"/>
			<point x="330" y="-290"/>
			<point x="410" y="-202"/>
			<point x="410" y="-111" type="curve"/>
			<point x="410" y="-19"/>
			<point x="341" y="9"/>
			<point x="231" y="34" type="curve"/>
			<point x="148" y="53"/>
			<point x="110" y="61"/>
			<point x="110" y="75" type="curve"/>
			<point x="110" y="83"/>
			<point x="131" y="102"/>
			<point x="223" y="122" type="curve"/>
			<point x="288" y="128"/>
			<point x="348" y="164"/>
			<point x="348" y="240" type="curve"/>
			<point x="348" y="270"/>
			<point x="333" y="301"/>
			<point x="311" y="320" type="curve"/>
			<point x="344" y="326"/>
			<point x="374" y="328"/>
			<point x="406" y="326" type="curve"/>
			<point x="413" y="364" type="line"/>
			<point x="413" y="370" type="line"/>
			<point x="330" y="370"/>
			<point x="260" y="381"/>
			<point x="210" y="381" type="curve"/>
			<point x="86" y="381"/>
			<point x="26" y="322"/>
			<point x="26" y="250" type="curve"/>
			<point x="26" y="178"/>
			<point x="72" y="140"/>
			<point x="138" y="127" type="curve"/>
			<point x="99" y="107"/>
			<point x="33" y="94"/>
			<point x="34" y="86" type="curve"/>
			<point x="42" y="26" type="line" smooth="yes"/>
			<point x="43" y="20"/>
			<point x="86" y="9"/>
			<point x="136" y="-3" type="curve"/>
			<point x="69" y="-35"/>
			<point x="10" y="-74"/>
			<point x="10" y="-151" type="curve"/>
			<point x="10" y="-250"/>
			<point x="84" y="-290"/>
		</contour>
		<contour>
			<point x="217" y="-261" type="curve"/>
			<point x="217" y="-261" type="line"/>
			<point x="142" y="-261"/>
			<point x="78" y="-211"/>
			<point x="78" y="-144" type="curve"/>
			<point x="78" y="-89"/>
			<point x="99" y="-46"/>
			<point x="175" y="-12" type="curve"/>
			<point x="191" y="-16" type="line" smooth="yes"/>
			<point x="314" y="-44"/>
			<point x="370" y="-68"/>
			<point x="370" y="-145" type="curve"/>
			<point x="370" y="-209"/>
			<point x="303" y="-261"/>
		</contour>
		<contour>
			<point x="198" y="149" type="curve"/>
			<point x="198" y="149" type="line"/>
			<point x="141" y="149"/>
			<point x="100" y="199"/>
			<point x="100" y="240" type="curve"/>
			<point x="100" y="305"/>
			<point x="152" y="326"/>
			<point x="194" y="324" type="curve"/>
			<point x="245" y="322"/>
			<point x="283" y="291"/>
			<point x="283" y="231" type="curve"/>
			<point x="283" y="172"/>
			<point x="238" y="149"/>
		</contour>
	</outline>
</glyph>
<glyph name="h" format="2">
	<advance width="430"/>
	<unicode hex="0068"/>
	<outline>
		<contour>
			<point x="232" y="28" type="curve"/>
			<point x="286" y="-22" type="line"/>
			<point x="306" y="-7" type="line"/>
			<point x="295" y="5"/>
			<point x="294" y="19"/>
			<point x="287" y="33" type="curve"/>
			<point x="345" y="87"/>
			<point x="405" y="132"/>
			<point x="405" y="221" type="curve"/>
			<point x="405" y="321"/>
			<point x="332" y="379"/>
			<point x="236" y="379" type="curve"/>
			<point x="188" y="372"/>
			<point x="137" y="343"/>
			<point x="97" y="328" type="curve"/>
			<point x="97" y="394" type="line" smooth="yes"/>
			<point x="97" y="555"/>
			<point x="102" y="605"/>
			<point x="118" y="666" type="curve"/>
			<point x="103" y="679" type="line"/>
			<point x="55" y="643"/>
			<point x="44" y="626"/>
			<point x="15" y="597" type="curve"/>
			<point x="28" y="464"/>
			<point x="29" y="176"/>
			<point x="25" y="0" type="curve"/>
			<point x="147" y="-1" type="line"/>
			<point x="153" y="24" type="line"/>
			<point x="99" y="24"/>
			<point x="97" y="24"/>
			<point x="97" y="77" type="curve"/>
			<point x="97" y="300" type="line"/>
			<point x="128" y="313"/>
			<point x="160" y="321"/>
			<point x="202" y="321" type="curve"/>
			<point x="296" y="321"/>
			<point x="350" y="260"/>
			<point x="350" y="190" type="curve"/>
			<point x="350" y="110"/>
			<point x="289" y="68"/>
		</contour>
	</outline>
</glyph>
<glyph name="j" format="2">
	<advance width="210"/>
	<unicode hex="006A"/>
	<outline>
		<contour>
			<point x="-6" y="-282" type="line"/>
			<point x="84" y="-210"/>
			<point x="146" y="-65"/>
			<point x="147" y="7" type="curve" smooth="yes"/>
			<point x="151" y="283" type="line" smooth="yes"/>
			<point x="152" y="349"/>
			<point x="151" y="349"/>
			<point x="185" y="367" type="curve"/>
			<point x="174" y="391" type="line"/>
			<point x="127" y="373"/>
			<point x="72" y="361"/>
			<point x="27" y="349" type="curve"/>
			<point x="29" y="324" type="line"/>
			<point x="70" y="323"/>
			<point x="71" y="323"/>
			<point x="70" y="272" type="curve" smooth="yes"/>
			<point x="68" y="70" type="line" smooth="yes"/>
			<point x="66" y="-96"/>
			<point x="52" y="-183"/>
			<point x="-25" y="-256" type="curve"/>
		</contour>
	</outline>
</glyph>
<glyph name="k" format="2">
	<advance width="393"/>
	<unicode hex="006B"/>
	<outline>
		<contour>
			<point x="276" y="-4" type="curve"/>
			<point x="276" y="-4" type="line"/>
			<point x="295" y="7"/>
			<point x="356" y="17"/>
			<point x="378" y="26" type="curve"/>
			<point x="372" y="50" type="line"/>
			<point x="329" y="56"/>
			<point x="281" y="132"/>
			<point x="244" y="208" type="curve"/>
			<point x="347" y="299" type="line"/>
			<point x="353" y="314"/>
			<point x="359" y="347"/>
			<point x="358" y="370" type="curve"/>
			<point x="336" y="380"/>
			<point x="232" y="378"/>
			<point x="204" y="373" type="curve"/>
			<point x="139" y="340" type="line"/>
			<point x="137" y="551"/>
			<point x="143" y="610"/>
			<point x="149" y="669" type="curve"/>
			<point x="134" y="678" type="line"/>
			<point x="110" y="651"/>
			<point x="57" y="611"/>
			<point x="15" y="582" type="curve"/>
			<point x="15" y="565" type="line"/>
			<point x="63" y="535"/>
			<point x="62" y="531"/>
			<point x="62" y="363" type="curve"/>
			<point x="62" y="243"/>
			<point x="60" y="120"/>
			<point x="57" y="0" type="curve"/>
			<point x="149" y="0" type="line"/>
			<point x="146" y="51"/>
			<point x="144" y="100"/>
			<point x="143" y="150" type="curve"/>
			<point x="171" y="165" type="line"/>
			<point x="212" y="127"/>
			<point x="243" y="51"/>
		</contour>
		<contour>
			<point x="142" y="180" type="curve"/>
			<point x="142" y="180" type="line"/>
			<point x="139" y="314" type="line"/>
			<point x="199" y="323"/>
			<point x="253" y="316"/>
			<point x="306" y="301" type="curve"/>
			<point x="268" y="254"/>
			<point x="220" y="216"/>
		</contour>
	</outline>
</glyph>
<glyph name="l" format="2">
	<advance width="200"/>
	<unicode hex="006C"/>
	<outline>
		<contour>
			<point x="184" y="-2" type="line"/>
			<point x="185" y="23" type="line"/>
			<point x="141" y="26"/>
			<point x="139" y="26"/>
			<point x="139" y="169" type="curve" smooth="yes"/>
			<point x="139" y="323" type="line" smooth="yes"/>
			<point x="139" y="554"/>
			<point x="145" y="610"/>
			<point x="151" y="671" type="curve"/>
			<point x="136" y="678" type="line"/>
			<point x="112" y="651"/>
			<point x="57" y="611"/>
			<point x="15" y="582" type="curve"/>
			<point x="15" y="564" type="line"/>
			<point x="63" y="534"/>
			<point x="62" y="531"/>
			<point x="62" y="363" type="curve" smooth="yes"/>
			<point x="62" y="171" type="line" smooth="yes"/>
			<point x="62" y="36"/>
			<point x="62" y="36"/>
			<point x="26" y="19" type="curve"/>
			<point x="26" y="-1" type="line"/>
		</contour>
	</outline>
</glyph>
<glyph name="m" format="2">
	<advance width="668"/>
	<unicode hex="006D"/>
	<outline>
		<contour>
			<point x="510" y="13" type="curve"/>
			<point x="515" y="-2" type="line"/>
			<point x="565" y="0"/>
			<point x="608" y="0"/>
			<point x="653" y="-2" type="curve"/>
			<point x="653" y="23" type="line"/>
			<point x="604" y="23"/>
			<point x="601" y="42"/>
			<point x="601" y="88" type="curve"/>
			<point x="601" y="130"/>
			<point x="617" y="198"/>
			<point x="617" y="256" type="curve"/>
			<point x="617" y="325"/>
			<point x="573" y="380"/>
			<point x="492" y="380" type="curve"/>
			<point x="473" y="380"/>
			<point x="408" y="355"/>
			<point x="368" y="330" type="curve"/>
			<point x="356" y="365"/>
			<point x="328" y="381"/>
			<point x="271" y="381" type="curve"/>
			<point x="253" y="381"/>
			<point x="178" y="348"/>
			<point x="136" y="323" type="curve"/>
			<point x="118" y="381" type="line"/>
			<point x="100" y="384" type="line"/>
			<point x="64" y="362"/>
			<point x="43" y="348"/>
			<point x="15" y="334" type="curve"/>
			<point x="15" y="309" type="line"/>
			<point x="51" y="304"/>
			<point x="56" y="291"/>
			<point x="56" y="223" type="curve"/>
			<point x="56" y="160"/>
			<point x="55" y="62"/>
			<point x="50" y="0" type="curve"/>
			<point x="142" y="0" type="line"/>
			<point x="136" y="86"/>
			<point x="134" y="215"/>
			<point x="139" y="302" type="curve"/>
			<point x="168" y="316"/>
			<point x="197" y="325"/>
			<point x="229" y="325" type="curve"/>
			<point x="282" y="325"/>
			<point x="293" y="305"/>
			<point x="293" y="237" type="curve"/>
			<point x="293" y="171"/>
			<point x="292" y="64"/>
			<point x="288" y="0" type="curve"/>
			<point x="383" y="0" type="line"/>
			<point x="379" y="65"/>
			<point x="376" y="149"/>
			<point x="376" y="262" type="curve"/>
			<point x="376" y="278"/>
			<point x="375" y="292"/>
			<point x="374" y="304" type="curve"/>
			<point x="404" y="319"/>
			<point x="427" y="325"/>
			<point x="463" y="324" type="curve"/>
			<point x="527" y="323"/>
			<point x="535" y="274"/>
			<point x="535" y="197" type="curve"/>
			<point x="535" y="140"/>
			<point x="525" y="49"/>
		</contour>
	</outline>
</glyph>
<glyph name="n" format="2">
	<advance width="443"/>
	<unicode hex="006E"/>
	<outline>
		<contour>
			<point x="50" y="-2" type="curve"/>
			<point x="50" y="-2" type="line"/>
			<point x="61" y="-1"/>
			<point x="130" y="-1"/>
			<point x="142" y="-2" type="curve"/>
			<point x="136" y="61"/>
			<point x="136" y="141"/>
			<point x="136" y="204" type="curve"/>
			<point x="136" y="236"/>
			<point x="136" y="263"/>
			<point x="138" y="289" type="curve"/>
			<point x="171" y="306"/>
			<point x="208" y="316"/>
			<point x="244" y="316" type="curve"/>
			<point x="298" y="316"/>
			<point x="311" y="284"/>
			<point x="311" y="217" type="curve"/>
			<point x="311" y="157"/>
			<point x="309" y="79"/>
			<point x="297" y="23" type="curve"/>
			<point x="297" y="-2" type="line"/>
			<point x="314" y="0"/>
			<point x="411" y="-1"/>
			<point x="427" y="-2" type="curve"/>
			<point x="428" y="33" type="line"/>
			<point x="391" y="36"/>
			<point x="387" y="41"/>
			<point x="386" y="85" type="curve"/>
			<point x="385" y="117"/>
			<point x="393" y="207"/>
			<point x="393" y="265" type="curve"/>
			<point x="393" y="334"/>
			<point x="358" y="381"/>
			<point x="274" y="381" type="curve"/>
			<point x="253" y="381"/>
			<point x="183" y="341"/>
			<point x="139" y="316" type="curve"/>
			<point x="145" y="374" type="line"/>
			<point x="127" y="384" type="line"/>
			<point x="91" y="362"/>
			<point x="53" y="344"/>
			<point x="15" y="334" type="curve"/>
			<point x="16" y="302" type="line"/>
			<point x="41" y="302"/>
			<point x="54" y="291"/>
			<point x="55" y="267" type="curve"/>
			<point x="56" y="249"/>
			<point x="56" y="226"/>
			<point x="56" y="204" type="curve"/>
			<point x="56" y="141"/>
			<point x="55" y="61"/>
		</contour>
	</outline>
</glyph>
<glyph name="o" format="2">
	<advance width="483"/>
	<unicode hex="006F"/>
	<outline>
		<contour>
			<point x="242" y="-10" type="curve"/>
			<point x="242" y="-10" type="line"/>
			<point x="349" y="-10"/>
			<point x="458" y="70"/>
			<point x="458" y="191" type="curve"/>
			<point x="458" y="308"/>
			<point x="361" y="381"/>
			<point x="239" y="381" type="curve"/>
			<point x="132" y="381"/>
			<point x="25" y="302"/>
			<point x="25" y="180" type="curve"/>
			<point x="25" y="59"/>
			<point x="121" y="-10"/>
		</contour>
		<contour>
			<point x="247" y="22" type="curve"/>
			<point x="247" y="22" type="line"/>
			<point x="157" y="22"/>
			<point x="110" y="105"/>
			<point x="110" y="195" type="curve"/>
			<point x="110" y="275"/>
			<point x="144" y="349"/>
			<point x="234" y="349" type="curve"/>
			<point x="324" y="349"/>
			<point x="373" y="266"/>
			<point x="373" y="176" type="curve"/>
			<point x="373" y="96"/>
			<point x="337" y="22"/>
		</contour>
	</outline>
</glyph>
<glyph name="p" format="2">
	<advance width="490"/>
	<unicode hex="0070"/>
	<outline>
		<contour>
			<point x="22" y="-258" type="curve"/>
			<point x="22" y="-282" type="line"/>
			<point x="65" y="-279"/>
			<point x="121" y="-280"/>
			<point x="167" y="-282" type="curve"/>
			<point x="167" y="-257" type="line"/>
			<point x="134" y="-234"/>
			<point x="137" y="-234"/>
			<point x="134" y="-169" type="curve"/>
			<point x="132" y="-130"/>
			<point x="132" y="-67"/>
			<point x="132" y="1" type="curve"/>
			<point x="161" y="14"/>
			<point x="210" y="-4"/>
			<point x="283" y="-14" type="curve"/>
			<point x="321" y="0"/>
			<point x="465" y="49"/>
			<point x="465" y="191" type="curve"/>
			<point x="465" y="307"/>
			<point x="369" y="372"/>
			<point x="261" y="381" type="curve"/>
			<point x="231" y="367"/>
			<point x="176" y="338"/>
			<point x="136" y="315" type="curve"/>
			<point x="124" y="376" type="line"/>
			<point x="106" y="380" type="line"/>
			<point x="69" y="358"/>
			<point x="53" y="351"/>
			<point x="15" y="331" type="curve"/>
			<point x="15" y="306" type="line"/>
			<point x="52" y="309"/>
			<point x="50" y="279"/>
			<point x="52" y="235" type="curve"/>
			<point x="55" y="172"/>
			<point x="54" y="-14"/>
			<point x="50" y="-144" type="curve"/>
			<point x="47" y="-240"/>
			<point x="50" y="-238"/>
		</contour>
		<contour>
			<point x="256" y="22" type="curve"/>
			<point x="256" y="22" type="line"/>
			<point x="226" y="22"/>
			<point x="171" y="28"/>
			<point x="132" y="60" type="curve"/>
			<point x="133" y="142"/>
			<point x="135" y="226"/>
			<point x="136" y="285" type="curve"/>
			<point x="166" y="306"/>
			<point x="203" y="320"/>
			<point x="234" y="320" type="curve"/>
			<point x="311" y="320"/>
			<point x="376" y="266"/>
			<point x="376" y="171" type="curve"/>
			<point x="376" y="91"/>
			<point x="326" y="22"/>
		</contour>
	</outline>
</glyph>
<glyph name="q" format="2">
	<advance width="499"/>
	<unicode hex="0071"/>
	<outline>
		<contour>
			<point x="377" y="-293" type="line"/>
			<point x="469" y="-233" type="line"/>
			<point x="455" y="-121"/>
			<point x="442" y="200"/>
			<point x="468" y="391" type="curve"/>
			<point x="450" y="398" type="line"/>
			<point x="378" y="341" type="line"/>
			<point x="336" y="355"/>
			<point x="278" y="381"/>
			<point x="257" y="381" type="curve" smooth="yes"/>
			<point x="127" y="381"/>
			<point x="25" y="291"/>
			<point x="25" y="171" type="curve" smooth="yes"/>
			<point x="25" y="54"/>
			<point x="125" y="-10"/>
			<point x="246" y="-10" type="curve"/>
			<point x="300" y="20"/>
			<point x="341" y="38"/>
			<point x="376" y="50" type="curve"/>
			<point x="378" y="-57"/>
			<point x="372" y="-168"/>
			<point x="364" y="-284" type="curve"/>
		</contour>
		<contour>
			<point x="248" y="31" type="curve" smooth="yes"/>
			<point x="149" y="31"/>
			<point x="115" y="116"/>
			<point x="115" y="186" type="curve" smooth="yes"/>
			<point x="115" y="276"/>
			<point x="172" y="341"/>
			<point x="250" y="341" type="curve" smooth="yes"/>
			<point x="316" y="341"/>
			<point x="372" y="279"/>
			<point x="373" y="226" type="curve" smooth="yes"/>
			<point x="374" y="146" type="line" smooth="yes"/>
			<point x="375" y="99"/>
			<point x="314" y="31"/>
		</contour>
	</outline>
</glyph>
<glyph name="r" format="2">
	<advance width="308"/>
	<unicode hex="0072"/>
	<outline>
		<contour>
			<point x="19" y="22" type="curve"/>
			<point x="19" y="-3" type="line"/>
			<point x="61" y="0"/>
			<point x="182" y="0"/>
			<point x="217" y="0" type="curve"/>
			<point x="217" y="25" type="line"/>
			<point x="154" y="29"/>
			<point x="154" y="29"/>
			<point x="154" y="70" type="curve"/>
			<point x="154" y="246" type="line"/>
			<point x="176" y="271"/>
			<point x="202" y="284"/>
			<point x="212" y="284" type="curve"/>
			<point x="227" y="284"/>
			<point x="246" y="273"/>
			<point x="261" y="258" type="curve"/>
			<point x="303" y="320" type="line"/>
			<point x="297" y="350"/>
			<point x="266" y="373"/>
			<point x="236" y="380" type="curve"/>
			<point x="208" y="340"/>
			<point x="180" y="311"/>
			<point x="152" y="284" type="curve"/>
			<point x="140" y="370" type="line"/>
			<point x="122" y="380" type="line"/>
			<point x="88" y="367"/>
			<point x="55" y="350"/>
			<point x="15" y="334" type="curve"/>
			<point x="15" y="311" type="line"/>
			<point x="72" y="311"/>
			<point x="73" y="309"/>
			<point x="73" y="258" type="curve"/>
			<point x="73" y="67" type="line" smooth="yes"/>
			<point x="73" y="30"/>
			<point x="75" y="30"/>
		</contour>
	</outline>
</glyph>
<glyph name="t" format="2">
	<advance width="350"/>
	<unicode hex="0074"/>
	<outline>
		<contour>
			<point x="182" y="-10" type="curve"/>
			<point x="182" y="-10" type="line"/>
			<point x="230" y="-9"/>
			<point x="288" y="40"/>
			<point x="335" y="76" type="curve"/>
			<point x="322" y="92" type="line"/>
			<point x="281" y="63"/>
			<point x="246" y="41"/>
			<point x="201" y="41" type="curve"/>
			<point x="141" y="41"/>
			<point x="138" y="85"/>
			<point x="138" y="172" type="curve"/>
			<point x="138" y="219"/>
			<point x="140" y="272"/>
			<point x="143" y="322" type="curve"/>
			<point x="318" y="322" type="line"/>
			<point x="328" y="370" type="line"/>
			<point x="145" y="370" type="line"/>
			<point x="149" y="425"/>
			<point x="153" y="473"/>
			<point x="156" y="497" type="curve"/>
			<point x="129" y="497" type="line"/>
			<point x="105" y="407"/>
			<point x="67" y="364"/>
			<point x="15" y="347" type="curve"/>
			<point x="15" y="322" type="line"/>
			<point x="61" y="322" type="line"/>
			<point x="59" y="246"/>
			<point x="57" y="161"/>
			<point x="57" y="106" type="curve"/>
			<point x="57" y="16"/>
			<point x="105" y="-12"/>
		</contour>
	</outline>
</glyph>
<glyph name="u" format="2">
	<advance width="421"/>
	<unicode hex="0075"/>
	<outline>
		<contour>
			<point x="153" y="-10" type="curve"/>
			<point x="200" y="16"/>
			<point x="242" y="46"/>
			<point x="286" y="68" type="curve"/>
			<point x="286" y="-4" type="line"/>
			<point x="295" y="-10" type="line"/>
			<point x="332" y="8"/>
			<point x="369" y="22"/>
			<point x="411" y="34" type="curve"/>
			<point x="411" y="59" type="line"/>
			<point x="380" y="62"/>
			<point x="367" y="72"/>
			<point x="366" y="118" type="curve" smooth="yes"/>
			<point x="365" y="187"/>
			<point x="369" y="308"/>
			<point x="372" y="376" type="curve"/>
			<point x="368" y="379" type="line"/>
			<point x="336" y="373"/>
			<point x="290" y="371"/>
			<point x="252" y="370" type="curve"/>
			<point x="252" y="345" type="line"/>
			<point x="284" y="338"/>
			<point x="287" y="320"/>
			<point x="287" y="279" type="curve" smooth="yes"/>
			<point x="286" y="108" type="line"/>
			<point x="235" y="65"/>
			<point x="205" y="48"/>
			<point x="169" y="48" type="curve" smooth="yes"/>
			<point x="129" y="48"/>
			<point x="113" y="97"/>
			<point x="113" y="179" type="curve" smooth="yes"/>
			<point x="113" y="254"/>
			<point x="119" y="325"/>
			<point x="131" y="374" type="curve"/>
			<point x="128" y="380" type="line"/>
			<point x="95" y="375"/>
			<point x="48" y="371"/>
			<point x="12" y="370" type="curve"/>
			<point x="10" y="345" type="line"/>
			<point x="40" y="330"/>
			<point x="40" y="320"/>
			<point x="40" y="277" type="curve" smooth="yes"/>
			<point x="40" y="224"/>
			<point x="36" y="173"/>
			<point x="36" y="128" type="curve" smooth="yes"/>
			<point x="36" y="25"/>
			<point x="103" y="-10"/>
		</contour>
	</outline>
</glyph>
<glyph name="v" format="2">
	<advance width="399"/>
	<unicode hex="0076"/>
	<outline>
		<contour>
			<point x="178" y="-10" type="curve"/>
			<point x="197" y="-10" type="line"/>
			<point x="242" y="87"/>
			<point x="359" y="296"/>
			<point x="394" y="346" type="curve"/>
			<point x="394" y="371" type="line"/>
			<point x="365" y="370"/>
			<point x="227" y="370"/>
			<point x="218" y="371" type="curve"/>
			<point x="218" y="346" type="line"/>
			<point x="282" y="328"/>
			<point x="278" y="317"/>
			<point x="258" y="270" type="curve" smooth="yes"/>
			<point x="234" y="212"/>
			<point x="197" y="152"/>
			<point x="169" y="102" type="curve"/>
			<point x="141" y="159"/>
			<point x="118" y="212"/>
			<point x="95" y="271" type="curve" smooth="yes"/>
			<point x="76" y="321"/>
			<point x="80" y="329"/>
			<point x="139" y="346" type="curve"/>
			<point x="139" y="371" type="line"/>
			<point x="5" y="371" type="line"/>
			<point x="5" y="346" type="line"/>
			<point x="39" y="298"/>
			<point x="155" y="44"/>
		</contour>
	</outline>
</glyph>
<glyph name="w" format="2">
	<advance width="645"/>
	<unicode hex="0077"/>
	<outline>
		<contour>
			<point x="183" y="-10" type="curve"/>
			<point x="183" y="-10" type="line"/>
			<point x="202" y="-10" type="line"/>
			<point x="227" y="45"/>
			<point x="274" y="135"/>
			<point x="316" y="213" type="curve"/>
			<point x="359" y="125"/>
			<point x="405" y="22"/>
			<point x="419" y="-10" type="curve"/>
			<point x="438" y="-10" type="line"/>
			<point x="483" y="87"/>
			<point x="600" y="296"/>
			<point x="635" y="346" type="curve"/>
			<point x="635" y="371" type="line"/>
			<point x="606" y="370"/>
			<point x="468" y="370"/>
			<point x="459" y="371" type="curve"/>
			<point x="459" y="346" type="line"/>
			<point x="523" y="328"/>
			<point x="519" y="317"/>
			<point x="499" y="270" type="curve"/>
			<point x="475" y="212"/>
			<point x="438" y="152"/>
			<point x="410" y="102" type="curve"/>
			<point x="384" y="155"/>
			<point x="362" y="205"/>
			<point x="341" y="258" type="curve"/>
			<point x="363" y="298"/>
			<point x="382" y="330"/>
			<point x="393" y="346" type="curve"/>
			<point x="393" y="371" type="line"/>
			<point x="364" y="370"/>
			<point x="226" y="370"/>
			<point x="217" y="371" type="curve"/>
			<point x="217" y="346" type="line"/>
			<point x="281" y="328"/>
			<point x="277" y="317"/>
			<point x="257" y="270" type="curve"/>
			<point x="233" y="212"/>
			<point x="200" y="152"/>
			<point x="173" y="103" type="curve"/>
			<point x="146" y="159"/>
			<point x="123" y="212"/>
			<point x="100" y="271" type="curve"/>
			<point x="81" y="321"/>
			<point x="85" y="329"/>
			<point x="144" y="346" type="curve"/>
			<point x="144" y="371" type="line"/>
			<point x="10" y="371" type="line"/>
			<point x="10" y="346" type="line"/>
			<point x="44" y="298"/>
			<point x="160" y="44"/>
		</contour>
	</outline>
</glyph>
<glyph name="x" format="2">
	<advance width="423"/>
	<unicode hex="0078"/>
	<outline>
		<contour>
			<point x="5" y="-2" type="curve"/>
			<point x="22" y="-17" type="line"/>
			<point x="82" y="19"/>
			<point x="147" y="77"/>
			<point x="207" y="137" type="curve"/>
			<point x="244" y="82"/>
			<point x="275" y="29"/>
			<point x="294" y="-2" type="curve"/>
			<point x="317" y="0"/>
			<point x="397" y="0"/>
			<point x="416" y="-2" type="curve"/>
			<point x="416" y="23" type="line"/>
			<point x="382" y="23"/>
			<point x="318" y="104"/>
			<point x="259" y="189" type="curve"/>
			<point x="334" y="267"/>
			<point x="395" y="335"/>
			<point x="418" y="346" type="curve"/>
			<point x="418" y="371" type="line"/>
			<point x="394" y="369"/>
			<point x="281" y="369"/>
			<point x="254" y="371" type="curve"/>
			<point x="254" y="346" type="line"/>
			<point x="288" y="340"/>
			<point x="309" y="333"/>
			<point x="301" y="316" type="curve"/>
			<point x="292" y="296"/>
			<point x="268" y="262"/>
			<point x="237" y="223" type="curve"/>
			<point x="195" y="285"/>
			<point x="159" y="344"/>
			<point x="140" y="371" type="curve"/>
			<point x="106" y="369"/>
			<point x="49" y="369"/>
			<point x="10" y="371" type="curve"/>
			<point x="10" y="346" type="line"/>
			<point x="57" y="340"/>
			<point x="127" y="254"/>
			<point x="188" y="165" type="curve"/>
			<point x="133" y="105"/>
			<point x="67" y="42"/>
		</contour>
	</outline>
</glyph>
<glyph name="y" format="2">
	<advance width="458"/>
	<unicode hex="0079"/>
	<outline>
		<contour>
			<point x="77" y="-279" type="line"/>
			<point x="132" y="-279" type="line"/>
			<point x="177" y="-177"/>
			<point x="327" y="149"/>
			<point x="396" y="281" type="curve" smooth="yes"/>
			<point x="408" y="304"/>
			<point x="438" y="337"/>
			<point x="453" y="343" type="curve"/>
			<point x="453" y="371" type="line"/>
			<point x="426" y="370"/>
			<point x="330" y="369"/>
			<point x="268" y="371" type="curve"/>
			<point x="268" y="346" type="line"/>
			<point x="331" y="340"/>
			<point x="344" y="322"/>
			<point x="334" y="293" type="curve" smooth="yes"/>
			<point x="308" y="216"/>
			<point x="266" y="120"/>
			<point x="223" y="30" type="curve"/>
			<point x="187" y="108"/>
			<point x="146" y="186"/>
			<point x="119" y="264" type="curve" smooth="yes"/>
			<point x="101" y="316"/>
			<point x="97" y="337"/>
			<point x="164" y="345" type="curve"/>
			<point x="164" y="370" type="line"/>
			<point x="95" y="368"/>
			<point x="21" y="369"/>
			<point x="5" y="370" type="curve"/>
			<point x="5" y="345" type="line"/>
			<point x="18" y="344"/>
			<point x="30" y="318"/>
			<point x="41" y="297" type="curve" smooth="yes"/>
			<point x="202" y="-14" type="line"/>
			<point x="150" y="-121"/>
			<point x="100" y="-214"/>
			<point x="78" y="-252" type="curve"/>
		</contour>
	</outline>
</glyph>
<glyph name="section" format="2">
	<advance width="454"/>
	<unicode hex="00A7"/>
	<outline>
		<contour>
			<point x="199" y="-241" type="curve"/>
			<point x="199" y="-241" type="line"/>
			<point x="306" y="-241"/>
			<point x="384" y="-155"/>
			<point x="384" y="-55" type="curve"/>
			<point x="384" y="-11"/>
			<point x="367" y="22"/>
			<point x="341" y="47" type="curve"/>
			<point x="383" y="88"/>
			<point x="414" y="136"/>
			<point x="414" y="195" type="curve"/>
			<point x="414" y="297"/>
			<point x="320" y="335"/>
			<point x="244" y="360" type="curve"/>
			<point x="171" y="384"/>
			<point x="136" y="417"/>
			<point x="136" y="457" type="curve"/>
			<point x="136" y="501"/>
			<point x="175" y="536"/>
			<point x="225" y="536" type="curve"/>
			<point x="282" y="536"/>
			<point x="345" y="504"/>
			<point x="341" y="412" type="curve"/>
			<point x="360" y="405" type="line"/>
			<point x="402" y="500" type="line"/>
			<point x="358" y="548"/>
			<point x="311" y="576"/>
			<point x="234" y="576" type="curve"/>
			<point x="153" y="576"/>
			<point x="76" y="512"/>
			<point x="76" y="430" type="curve"/>
			<point x="76" y="385"/>
			<point x="96" y="352"/>
			<point x="126" y="328" type="curve"/>
			<point x="83" y="294"/>
			<point x="50" y="242"/>
			<point x="50" y="193" type="curve"/>
			<point x="50" y="102"/>
			<point x="120" y="59"/>
			<point x="185" y="38" type="curve"/>
			<point x="253" y="16"/>
			<point x="325" y="-21"/>
			<point x="323" y="-91" type="curve"/>
			<point x="321" y="-159"/>
			<point x="261" y="-201"/>
			<point x="199" y="-201" type="curve"/>
			<point x="124" y="-201"/>
			<point x="77" y="-172"/>
			<point x="73" y="-113" type="curve"/>
			<point x="53" y="-112" type="line"/>
			<point x="40" y="-202" type="line"/>
			<point x="76" y="-224"/>
			<point x="119" y="-241"/>
		</contour>
		<contour>
			<point x="316" y="67" type="curve"/>
			<point x="316" y="67" type="line"/>
			<point x="288" y="86"/>
			<point x="255" y="100"/>
			<point x="224" y="110" type="curve"/>
			<point x="151" y="134"/>
			<point x="112" y="166"/>
			<point x="112" y="227" type="curve"/>
			<point x="112" y="266"/>
			<point x="129" y="289"/>
			<point x="153" y="310" type="curve"/>
			<point x="170" y="301"/>
			<point x="187" y="294"/>
			<point x="205" y="288" type="curve"/>
			<point x="273" y="266"/>
			<point x="355" y="226"/>
			<point x="353" y="156" type="curve"/>
			<point x="352" y="120"/>
			<point x="342" y="94"/>
		</contour>
	</outline>
</glyph>
<glyph name="a_macr" format="2">
	<advance width="357"/>
	<unicode hex="0101"/>
	<outline>
		<contour>
			<point x="117" y="-10" type="curve"/>
			<point x="117" y="-10" type="line"/>
			<point x="170" y="-10"/>
			<point x="204" y="32"/>
			<point x="226" y="59" type="curve"/>
			<point x="234" y="-10" type="line"/>
			<point x="277" y="-6"/>
			<point x="305" y="-3"/>
			<point x="352" y="1" type="curve"/>
			<point x="352" y="26" type="line"/>
			<point x="306" y="34"/>
			<point x="300" y="48"/>
			<point x="300" y="98" type="curve"/>
			<point x="300" y="137"/>
			<point x="303" y="180"/>
			<point x="305" y="257" type="curve"/>
			<point x="307" y="335"/>
			<point x="254" y="381"/>
			<point x="170" y="381" type="curve"/>
			<point x="87" y="381"/>
			<point x="9" y="313"/>
			<point x="15" y="238" type="curve"/>
			<point x="18" y="225" type="line"/>
			<point x="127" y="249" type="line"/>
			<point x="126" y="261" type="line"/>
			<point x="105" y="266"/>
			<point x="79" y="283"/>
			<point x="79" y="304" type="curve"/>
			<point x="79" y="332"/>
			<point x="117" y="351"/>
			<point x="154" y="351" type="curve"/>
			<point x="199" y="351"/>
			<point x="230" y="320"/>
			<point x="227" y="240" type="curve"/>
			<point x="225" y="196" type="line"/>
			<point x="143" y="201"/>
			<point x="60" y="181"/>
			<point x="22" y="132" type="curve"/>
			<point x="7" y="63"/>
			<point x="47" y="-10"/>
		</contour>
		<contour>
			<point x="144" y="49" type="curve"/>
			<point x="144" y="49" type="line"/>
			<point x="101" y="49"/>
			<point x="82" y="85"/>
			<point x="92" y="125" type="curve"/>
			<point x="110" y="158"/>
			<point x="172" y="184"/>
			<point x="224" y="167" type="curve"/>
			<point x="222" y="99" type="line"/>
			<point x="223" y="94" type="line"/>
			<point x="206" y="73"/>
			<point x="186" y="49"/>
		</contour>
		<contour>
			<point x="205" y="552" type="curve"/>
			<point x="205" y="552" type="line"/>
			<point x="323" y="642" type="line"/>
			<point x="299" y="661" type="line"/>
			<point x="288" y="654"/>
			<point x="264" y="635"/>
			<point x="236" y="635" type="curve"/>
			<point x="220" y="635"/>
			<point x="166" y="647"/>
			<point x="131" y="660" type="curve"/>
			<point x="42" y="587" type="line"/>
			<point x="62" y="563" type="line"/>
			<point x="81" y="579"/>
			<point x="95" y="577"/>
			<point x="109" y="577" type="curve"/>
			<point x="128" y="577"/>
			<point x="170" y="564"/>
		</contour>
	</outline>
</glyph>
<glyph name="d_strok" format="2">
	<advance width="518"/>
	<unicode hex="0111"/>
	<outline>
		<contour>
			<point x="348" y="-22" type="line"/>
			<point x="353" y="-27" type="line"/>
			<point x="397" y="-9"/>
			<point x="442" y="8"/>
			<point x="498" y="22" type="curve"/>
			<point x="498" y="40" type="line"/>
			<point x="441" y="53"/>
			<point x="431" y="61"/>
			<point x="432" y="129" type="curve"/>
			<point x="436" y="424"/>
			<point x="431" y="282"/>
			<point x="436" y="481" type="curve"/>
			<point x="475" y="478" type="line"/>
			<point x="503" y="525" type="line"/>
			<point x="500" y="531" type="line"/>
			<point x="479" y="529"/>
			<point x="458" y="528"/>
			<point x="438" y="527" type="curve"/>
			<point x="438" y="540"/>
			<point x="439" y="555"/>
			<point x="439" y="571" type="curve"/>
			<point x="442" y="668"/>
			<point x="444" y="672"/>
			<point x="480" y="673" type="curve"/>
			<point x="480" y="703" type="line"/>
			<point x="427" y="699"/>
			<point x="303" y="699"/>
			<point x="252" y="703" type="curve"/>
			<point x="252" y="674" type="line"/>
			<point x="355" y="672"/>
			<point x="355" y="672"/>
			<point x="355" y="607" type="curve"/>
			<point x="355" y="525" type="line"/>
			<point x="272" y="524"/>
			<point x="187" y="527"/>
			<point x="97" y="530" type="curve"/>
			<point x="95" y="524" type="line"/>
			<point x="114" y="503" type="line"/>
			<point x="197" y="500"/>
			<point x="275" y="494"/>
			<point x="355" y="487" type="curve"/>
			<point x="354" y="449"/>
			<point x="354" y="406"/>
			<point x="354" y="363" type="curve"/>
			<point x="305" y="374"/>
			<point x="266" y="381"/>
			<point x="257" y="381" type="curve"/>
			<point x="117" y="381"/>
			<point x="25" y="291"/>
			<point x="25" y="176" type="curve"/>
			<point x="25" y="46"/>
			<point x="116" y="-10"/>
			<point x="241" y="-10" type="curve"/>
			<point x="294" y="19"/>
			<point x="327" y="40"/>
			<point x="359" y="57" type="curve"/>
		</contour>
		<contour>
			<point x="245" y="39" type="curve"/>
			<point x="245" y="39" type="line"/>
			<point x="153" y="39"/>
			<point x="102" y="106"/>
			<point x="102" y="186" type="curve"/>
			<point x="102" y="286"/>
			<point x="164" y="349"/>
			<point x="244" y="349" type="curve"/>
			<point x="287" y="349"/>
			<point x="331" y="329"/>
			<point x="353" y="271" type="curve"/>
			<point x="353" y="214"/>
			<point x="353" y="162"/>
			<point x="352" y="126" type="curve"/>
			<point x="346" y="70"/>
			<point x="289" y="39"/>
		</contour>
	</outline>
</glyph>
<glyph name="e_macr" format="2">
	<advance width="412"/>
	<unicode hex="0113"/>
	<outline>
		<contour>
			<point x="223" y="-10" type="curve" smooth="yes"/>
			<point x="261" y="-10"/>
			<point x="357" y="40"/>
			<point x="402" y="108" type="curve"/>
			<point x="381" y="120" type="line"/>
			<point x="350" y="76"/>
			<point x="307" y="45"/>
			<point x="248" y="45" type="curve" smooth="yes"/>
			<point x="180" y="45"/>
			<point x="127" y="91"/>
			<point x="112" y="168" type="curve"/>
			<point x="370" y="280" type="line"/>
			<point x="370" y="294" type="line"/>
			<point x="327" y="309"/>
			<point x="227" y="381"/>
			<point x="214" y="381" type="curve"/>
			<point x="127" y="361"/>
			<point x="55" y="305"/>
			<point x="40" y="272" type="curve"/>
			<point x="32" y="246"/>
			<point x="25" y="217"/>
			<point x="25" y="179" type="curve" smooth="yes"/>
			<point x="25" y="62"/>
			<point x="108" y="-10"/>
		</contour>
		<contour>
			<point x="108" y="198" type="line"/>
			<point x="108" y="214" type="line" smooth="yes"/>
			<point x="108" y="257"/>
			<point x="112" y="299"/>
			<point x="138" y="324" type="curve"/>
			<point x="181" y="328"/>
			<point x="236" y="299"/>
			<point x="261" y="264" type="curve"/>
		</contour>
		<contour>
			<point x="271" y="524" type="curve"/>
			<point x="359" y="595" type="line"/>
			<point x="335" y="614" type="line"/>
			<point x="324" y="607"/>
			<point x="310" y="599"/>
			<point x="302" y="599" type="curve" smooth="yes"/>
			<point x="286" y="599"/>
			<point x="232" y="609"/>
			<point x="197" y="622" type="curve"/>
			<point x="103" y="561" type="line"/>
			<point x="123" y="537" type="line"/>
			<point x="137" y="546"/>
			<point x="151" y="544"/>
			<point x="165" y="544" type="curve" smooth="yes"/>
			<point x="184" y="544"/>
			<point x="236" y="536"/>
		</contour>
	</outline>
</glyph>
<glyph name="i_macr" format="2">
	<advance width="216"/>
	<unicode hex="012B"/>
	<outline>
		<contour>
			<point x="46" y="0" type="line"/>
			<point x="70" y="2"/>
			<point x="155" y="0"/>
			<point x="189" y="0" type="curve"/>
			<point x="189" y="25" type="line"/>
			<point x="147" y="36"/>
			<point x="148" y="36"/>
			<point x="148" y="97" type="curve" smooth="yes"/>
			<point x="148" y="187"/>
			<point x="147" y="268"/>
			<point x="161" y="377" type="curve"/>
			<point x="149" y="391" type="line"/>
			<point x="114" y="373"/>
			<point x="73" y="361"/>
			<point x="27" y="349" type="curve"/>
			<point x="29" y="324" type="line"/>
			<point x="70" y="323"/>
			<point x="71" y="323"/>
			<point x="70" y="272" type="curve" smooth="yes"/>
			<point x="68" y="96" type="line" smooth="yes"/>
			<point x="67" y="36"/>
			<point x="67" y="35"/>
			<point x="46" y="20" type="curve"/>
		</contour>
		<contour>
			<point x="120" y="527" type="curve"/>
			<point x="201" y="598" type="line"/>
			<point x="179" y="617" type="line"/>
			<point x="169" y="610"/>
			<point x="156" y="603"/>
			<point x="149" y="603" type="curve" smooth="yes"/>
			<point x="134" y="603"/>
			<point x="113" y="621"/>
			<point x="81" y="634" type="curve"/>
			<point x="15" y="576" type="line"/>
			<point x="26" y="552" type="line"/>
			<point x="28" y="552"/>
			<point x="41" y="562"/>
			<point x="54" y="562" type="curve" smooth="yes"/>
			<point x="71" y="562"/>
			<point x="89" y="548"/>
		</contour>
	</outline>
</glyph>
<glyph name="o_macr" format="2">
	<advance width="450"/>
	<unicode hex="014D"/>
	<outline>
		<contour>
			<point x="209" y="-10" type="curve"/>
			<point x="209" y="-10" type="line"/>
			<point x="316" y="-10"/>
			<point x="425" y="70"/>
			<point x="425" y="191" type="curve"/>
			<point x="425" y="308"/>
			<point x="328" y="381"/>
			<point x="206" y="381" type="curve"/>
			<point x="132" y="381"/>
			<point x="58" y="343"/>
			<point x="25" y="281" type="curve"/>
			<point x="29" y="67" type="line"/>
			<point x="67" y="17"/>
			<point x="133" y="-10"/>
		</contour>
		<contour>
			<point x="214" y="22" type="curve"/>
			<point x="214" y="22" type="line"/>
			<point x="124" y="22"/>
			<point x="77" y="105"/>
			<point x="77" y="195" type="curve"/>
			<point x="77" y="275"/>
			<point x="111" y="349"/>
			<point x="201" y="349" type="curve"/>
			<point x="291" y="349"/>
			<point x="340" y="266"/>
			<point x="340" y="176" type="curve"/>
			<point x="340" y="96"/>
			<point x="304" y="22"/>
		</contour>
		<contour>
			<point x="260" y="582" type="curve"/>
			<point x="260" y="582" type="line"/>
			<point x="348" y="653" type="line"/>
			<point x="324" y="672" type="line"/>
			<point x="313" y="665"/>
			<point x="299" y="657"/>
			<point x="291" y="657" type="curve"/>
			<point x="275" y="657"/>
			<point x="221" y="677"/>
			<point x="186" y="690" type="curve"/>
			<point x="92" y="617" type="line"/>
			<point x="112" y="593" type="line"/>
			<point x="126" y="602"/>
			<point x="140" y="612"/>
			<point x="154" y="612" type="curve"/>
			<point x="173" y="612"/>
			<point x="225" y="594"/>
		</contour>
	</outline>
</glyph>
<glyph name="u_macr" format="2">
	<advance width="421"/>
	<unicode hex="016B"/>
	<outline>
		<contour>
			<point x="153" y="-10" type="curve"/>
			<point x="200" y="16"/>
			<point x="242" y="46"/>
			<point x="286" y="68" type="curve"/>
			<point x="286" y="-4" type="line"/>
			<point x="295" y="-10" type="line"/>
			<point x="332" y="8"/>
			<point x="369" y="22"/>
			<point x="411" y="34" type="curve"/>
			<point x="411" y="59" type="line"/>
			<point x="380" y="62"/>
			<point x="367" y="72"/>
			<point x="366" y="118" type="curve" smooth="yes"/>
			<point x="365" y="187"/>
			<point x="369" y="308"/>
			<point x="372" y="376" type="curve"/>
			<point x="368" y="379" type="line"/>
			<point x="336" y="373"/>
			<point x="290" y="371"/>
			<point x="252" y="370" type="curve"/>
			<point x="252" y="345" type="line"/>
			<point x="284" y="338"/>
			<point x="287" y="320"/>
			<point x="287" y="279" type="curve" smooth="yes"/>
			<point x="286" y="108" type="line"/>
			<point x="235" y="65"/>
			<point x="205" y="48"/>
			<point x="169" y="48" type="curve" smooth="yes"/>
			<point x="129" y="48"/>
			<point x="113" y="97"/>
			<point x="113" y="179" type="curve" smooth="yes"/>
			<point x="113" y="254"/>
			<point x="119" y="325"/>
			<point x="131" y="374" type="curve"/>
			<point x="128" y="380" type="line"/>
			<point x="95" y="375"/>
			<point x="48" y="371"/>
			<point x="12" y="370" type="curve"/>
			<point x="10" y="345" type="line"/>
			<point x="40" y="330"/>
			<point x="40" y="320"/>
			<point x="40" y="277" type="curve" smooth="yes"/>
			<point x="40" y="224"/>
			<point x="36" y="173"/>
			<point x="36" y="128" type="curve" smooth="yes"/>
			<point x="36" y="25"/>
			<point x="103" y="-10"/>
		</contour>
		<contour>
			<point x="257" y="514" type="curve"/>
			<point x="345" y="585" type="line"/>
			<point x="321" y="604" type="line"/>
			<point x="310" y="597"/>
			<point x="296" y="589"/>
			<point x="288" y="589" type="curve" smooth="yes"/>
			<point x="272" y="589"/>
			<point x="218" y="609"/>
			<point x="183" y="622" type="curve"/>
			<point x="89" y="549" type="line"/>
			<point x="109" y="525" type="line"/>
			<point x="123" y="534"/>
			<point x="137" y="544"/>
			<point x="151" y="544" type="curve" smooth="yes"/>
			<point x="170" y="544"/>
			<point x="222" y="526"/>
		</contour>
	</outline>
</glyph>
<glyph name="p_bardes" format="2">
	<advance width="501"/>
	<unicode hex="A751"/>
	<outline>
		<contour>
			<point x="48" y="-280" type="curve"/>
			<point x="59" y="-279"/>
			<point x="156" y="-272"/>
			<point x="176" y="-272" type="curve"/>
			<point x="176" y="-249" type="line"/>
			<point x="154" y="-239"/>
			<point x="144" y="-234"/>
			<point x="143" y="-208" type="curve" smooth="yes"/>
			<point x="143" y="-196"/>
			<point x="142" y="-173"/>
			<point x="142" y="-143" type="curve"/>
			<point x="226" y="-149"/>
			<point x="308" y="-158"/>
			<point x="394" y="-163" type="curve"/>
			<point x="422" y="-116" type="line"/>
			<point x="419" y="-111" type="line"/>
			<point x="328" y="-118"/>
			<point x="237" y="-117"/>
			<point x="142" y="-114" type="curve"/>
			<point x="142" y="-1" type="line"/>
			<point x="164" y="-6"/>
			<point x="206" y="-10"/>
			<point x="241" y="-10" type="curve" smooth="yes"/>
			<point x="370" y="-10"/>
			<point x="476" y="97"/>
			<point x="476" y="211" type="curve" smooth="yes"/>
			<point x="476" y="322"/>
			<point x="403" y="381"/>
			<point x="279" y="381" type="curve" smooth="yes"/>
			<point x="256" y="381"/>
			<point x="188" y="340"/>
			<point x="146" y="316" type="curve"/>
			<point x="147" y="333"/>
			<point x="149" y="351"/>
			<point x="151" y="371" type="curve"/>
			<point x="133" y="381" type="line"/>
			<point x="107" y="359"/>
			<point x="62" y="341"/>
			<point x="24" y="331" type="curve"/>
			<point x="26" y="294" type="line"/>
			<point x="51" y="294"/>
			<point x="60" y="285"/>
			<point x="61" y="261" type="curve" smooth="yes"/>
			<point x="62" y="244"/>
			<point x="62" y="224"/>
			<point x="62" y="204" type="curve" smooth="yes"/>
			<point x="62" y="165"/>
			<point x="59" y="14"/>
			<point x="55" y="-111" type="curve"/>
			<point x="37" y="-110"/>
			<point x="20" y="-110"/>
			<point x="2" y="-109" type="curve"/>
			<point x="0" y="-115" type="line"/>
			<point x="20" y="-136" type="line"/>
			<point x="31" y="-136"/>
			<point x="43" y="-137"/>
			<point x="54" y="-138" type="curve"/>
			<point x="52" y="-204"/>
			<point x="50" y="-259"/>
		</contour>
		<contour>
			<point x="252" y="27" type="curve" smooth="yes"/>
			<point x="207" y="27"/>
			<point x="163" y="46"/>
			<point x="142" y="74" type="curve"/>
			<point x="142" y="204" type="line" smooth="yes"/>
			<point x="142" y="234"/>
			<point x="142" y="259"/>
			<point x="144" y="284" type="curve"/>
			<point x="176" y="301"/>
			<point x="214" y="320"/>
			<point x="250" y="320" type="curve" smooth="yes"/>
			<point x="343" y="320"/>
			<point x="402" y="250"/>
			<point x="402" y="170" type="curve" smooth="yes"/>
			<point x="402" y="79"/>
			<point x="342" y="27"/>
		</contour>
	</outline>
</glyph>
<glyph name="p_flour" format="2">
	<advance width="589"/>
	<unicode hex="A752"/>
	<outline>
		<contour>
			<point x="128" y="-282" type="line"/>
			<point x="171" y="-279"/>
			<point x="227" y="-280"/>
			<point x="273" y="-282" type="curve"/>
			<point x="273" y="-257" type="line"/>
			<point x="240" y="-234"/>
			<point x="243" y="-234"/>
			<point x="240" y="-169" type="curve" smooth="yes"/>
			<point x="238" y="-130"/>
			<point x="238" y="-68"/>
			<point x="238" y="0" type="curve"/>
			<point x="276" y="-1"/>
			<point x="319" y="-5"/>
			<point x="389" y="-14" type="curve"/>
			<point x="427" y="0"/>
			<point x="564" y="49"/>
			<point x="564" y="191" type="curve" smooth="yes"/>
			<point x="564" y="307"/>
			<point x="475" y="372"/>
			<point x="367" y="381" type="curve"/>
			<point x="337" y="367"/>
			<point x="283" y="339"/>
			<point x="243" y="315" type="curve"/>
			<point x="240" y="376" type="line"/>
			<point x="188" y="374"/>
			<point x="148" y="372"/>
			<point x="111" y="369" type="curve"/>
			<point x="111" y="344" type="line"/>
			<point x="158" y="347"/>
			<point x="156" y="317"/>
			<point x="158" y="273" type="curve" smooth="yes"/>
			<point x="160" y="236"/>
			<point x="160" y="143"/>
			<point x="159" y="46" type="curve"/>
			<point x="69" y="49"/>
			<point x="0" y="6"/>
			<point x="0" y="-55" type="curve" smooth="yes"/>
			<point x="0" y="-99"/>
			<point x="13" y="-121"/>
			<point x="33" y="-155" type="curve"/>
			<point x="98" y="-121" type="line"/>
			<point x="98" y="-108" type="line"/>
			<point x="61" y="-97"/>
			<point x="50" y="-77"/>
			<point x="50" y="-45" type="curve" smooth="yes"/>
			<point x="50" y="-5"/>
			<point x="97" y="18"/>
			<point x="159" y="10" type="curve"/>
			<point x="156" y="-144" type="line" smooth="yes"/>
			<point x="153" y="-240"/>
			<point x="156" y="-238"/>
			<point x="128" y="-258" type="curve"/>
		</contour>
		<contour>
			<point x="362" y="22" type="curve" smooth="yes"/>
			<point x="332" y="22"/>
			<point x="277" y="29"/>
			<point x="238" y="37" type="curve"/>
			<point x="239" y="126"/>
			<point x="241" y="220"/>
			<point x="242" y="285" type="curve"/>
			<point x="274" y="306"/>
			<point x="318" y="320"/>
			<point x="349" y="320" type="curve" smooth="yes"/>
			<point x="426" y="320"/>
			<point x="488" y="266"/>
			<point x="488" y="171" type="curve" smooth="yes"/>
			<point x="488" y="91"/>
			<point x="432" y="22"/>
		</contour>
	</outline>
</glyph>
<glyph name="q_bardes" format="2">
	<advance width="527"/>
	<unicode hex="A757"/>
	<outline>
		<contour>
			<point x="364" y="-284" type="curve"/>
			<point x="377" y="-293" type="line"/>
			<point x="469" y="-233" type="line"/>
			<point x="465" y="-203"/>
			<point x="462" y="-158"/>
			<point x="459" y="-104" type="curve"/>
			<point x="467" y="-101"/>
			<point x="476" y="-99"/>
			<point x="484" y="-96" type="curve"/>
			<point x="497" y="-41" type="line"/>
			<point x="492" y="-37" type="line"/>
			<point x="480" y="-43"/>
			<point x="468" y="-48"/>
			<point x="456" y="-53" type="curve"/>
			<point x="451" y="88"/>
			<point x="451" y="267"/>
			<point x="468" y="391" type="curve"/>
			<point x="450" y="398" type="line"/>
			<point x="378" y="341" type="line"/>
			<point x="336" y="355"/>
			<point x="278" y="381"/>
			<point x="257" y="381" type="curve"/>
			<point x="127" y="381"/>
			<point x="25" y="291"/>
			<point x="25" y="171" type="curve"/>
			<point x="25" y="54"/>
			<point x="125" y="-10"/>
			<point x="246" y="-10" type="curve"/>
			<point x="300" y="20"/>
			<point x="341" y="38"/>
			<point x="376" y="50" type="curve"/>
			<point x="377" y="5"/>
			<point x="376" y="-41"/>
			<point x="375" y="-87" type="curve"/>
			<point x="281" y="-124"/>
			<point x="183" y="-157"/>
			<point x="78" y="-194" type="curve"/>
			<point x="78" y="-200" type="line"/>
			<point x="105" y="-212" type="line"/>
			<point x="196" y="-181"/>
			<point x="284" y="-156"/>
			<point x="373" y="-129" type="curve"/>
			<point x="371" y="-180"/>
			<point x="368" y="-231"/>
		</contour>
		<contour>
			<point x="248" y="31" type="curve"/>
			<point x="248" y="31" type="line"/>
			<point x="149" y="31"/>
			<point x="115" y="116"/>
			<point x="115" y="186" type="curve"/>
			<point x="115" y="276"/>
			<point x="172" y="341"/>
			<point x="250" y="341" type="curve"/>
			<point x="316" y="341"/>
			<point x="372" y="279"/>
			<point x="373" y="226" type="curve"/>
			<point x="374" y="146" type="line" smooth="yes"/>
			<point x="375" y="99"/>
			<point x="314" y="31"/>
		</contour>
	</outline>
</glyph>
<glyph name="q_strok" format="2">
	<advance width="709"/>
	<unicode hex="A759"/>
	<outline>
		<contour>
			<point x="377" y="-293" type="line"/>
			<point x="469" y="-233" type="line"/>
			<point x="464" y="-193"/>
			<point x="459" y="-126"/>
			<point x="456" y="-48" type="curve"/>
			<point x="547" y="59"/>
			<point x="667" y="180"/>
			<point x="684" y="274" type="curve"/>
			<point x="674" y="318"/>
			<point x="623" y="358"/>
			<point x="582" y="368" type="curve"/>
			<point x="546" y="368"/>
			<point x="503" y="330"/>
			<point x="458" y="284" type="curve"/>
			<point x="460" y="322"/>
			<point x="464" y="359"/>
			<point x="468" y="391" type="curve"/>
			<point x="450" y="398" type="line"/>
			<point x="378" y="341" type="line"/>
			<point x="336" y="355"/>
			<point x="278" y="381"/>
			<point x="257" y="381" type="curve" smooth="yes"/>
			<point x="127" y="381"/>
			<point x="25" y="291"/>
			<point x="25" y="171" type="curve" smooth="yes"/>
			<point x="25" y="54"/>
			<point x="125" y="-10"/>
			<point x="246" y="-10" type="curve"/>
			<point x="300" y="20"/>
			<point x="341" y="38"/>
			<point x="376" y="50" type="curve"/>
			<point x="378" y="-57"/>
			<point x="372" y="-168"/>
			<point x="364" y="-284" type="curve"/>
		</contour>
		<contour>
			<point x="248" y="31" type="curve" smooth="yes"/>
			<point x="149" y="31"/>
			<point x="115" y="116"/>
			<point x="115" y="186" type="curve" smooth="yes"/>
			<point x="115" y="276"/>
			<point x="172" y="341"/>
			<point x="250" y="341" type="curve" smooth="yes"/>
			<point x="316" y="341"/>
			<point x="372" y="279"/>
			<point x="373" y="226" type="curve" smooth="yes"/>
			<point x="374" y="146" type="line" smooth="yes"/>
			<point x="375" y="99"/>
			<point x="314" y="31"/>
		</contour>
		<contour>
			<point x="455" y="0" type="curve"/>
			<point x="452" y="82"/>
			<point x="452" y="172"/>
			<point x="456" y="255" type="curve"/>
			<point x="477" y="278"/>
			<point x="500" y="296"/>
			<point x="520" y="296" type="curve" smooth="yes"/>
			<point x="553" y="296"/>
			<point x="595" y="263"/>
			<point x="595" y="226" type="curve" smooth="yes"/>
			<point x="595" y="146"/>
			<point x="523" y="64"/>
		</contour>
	</outline>
</glyph>
<glyph name="v_strok" format="2">
	<advance width="619"/>
	<unicode hex="A75F"/>
	<outline>
		<contour>
			<point x="383" y="-17" type="curve"/>
			<point x="394" y="-20" type="line"/>
			<point x="538" y="62"/>
			<point x="614" y="124"/>
			<point x="614" y="222" type="curve"/>
			<point x="614" y="292"/>
			<point x="535" y="379"/>
			<point x="430" y="379" type="curve"/>
			<point x="404" y="379"/>
			<point x="322" y="315"/>
			<point x="263" y="271" type="curve"/>
			<point x="216" y="324" type="line"/>
			<point x="254" y="404"/>
			<point x="281" y="485"/>
			<point x="297" y="556" type="curve"/>
			<point x="306" y="597"/>
			<point x="336" y="597"/>
			<point x="390" y="607" type="curve"/>
			<point x="390" y="632" type="line"/>
			<point x="324" y="630"/>
			<point x="252" y="630"/>
			<point x="187" y="632" type="curve"/>
			<point x="188" y="607" type="line"/>
			<point x="216" y="601"/>
			<point x="249" y="587"/>
			<point x="241" y="547" type="curve"/>
			<point x="229" y="488"/>
			<point x="210" y="424"/>
			<point x="184" y="360" type="curve"/>
			<point x="120" y="432"/>
			<point x="66" y="494"/>
			<point x="47" y="527" type="curve"/>
			<point x="37" y="524" type="line"/>
			<point x="32" y="376" type="line"/>
			<point x="72" y="346"/>
			<point x="111" y="312"/>
			<point x="147" y="278" type="curve"/>
			<point x="108" y="202"/>
			<point x="61" y="130"/>
			<point x="5" y="72" type="curve"/>
			<point x="24" y="59" type="line"/>
			<point x="84" y="113"/>
			<point x="134" y="179"/>
			<point x="176" y="249" type="curve"/>
			<point x="272" y="153"/>
			<point x="348" y="51"/>
		</contour>
		<contour>
			<point x="445" y="47" type="curve"/>
			<point x="445" y="47" type="line"/>
			<point x="405" y="105"/>
			<point x="345" y="177"/>
			<point x="282" y="248" type="curve"/>
			<point x="319" y="288"/>
			<point x="366" y="314"/>
			<point x="416" y="314" type="curve"/>
			<point x="487" y="314"/>
			<point x="527" y="258"/>
			<point x="527" y="192" type="curve"/>
			<point x="527" y="139"/>
			<point x="510" y="90"/>
		</contour>
	</outline>
</glyph>
<glyph name="l_strok" format="2">
	<advance width="315"/>
	<unicode hex="A769"/>
	<outline>
		<contour>
			<point x="184" y="-2" type="line"/>
			<point x="185" y="23" type="line"/>
			<point x="141" y="26"/>
			<point x="139" y="26"/>
			<point x="139" y="169" type="curve" smooth="yes"/>
			<point x="139" y="304" type="line"/>
			<point x="239" y="371"/>
			<point x="323" y="482"/>
			<point x="308" y="599" type="curve"/>
			<point x="196" y="599" type="line"/>
			<point x="196" y="574" type="line"/>
			<point x="226" y="564"/>
			<point x="252" y="554"/>
			<point x="252" y="508" type="curve" smooth="yes"/>
			<point x="252" y="443"/>
			<point x="202" y="381"/>
			<point x="139" y="338" type="curve"/>
			<point x="139" y="483"/>
			<point x="145" y="537"/>
			<point x="151" y="596" type="curve"/>
			<point x="136" y="603" type="line"/>
			<point x="112" y="596"/>
			<point x="57" y="591"/>
			<point x="15" y="582" type="curve"/>
			<point x="15" y="564" type="line"/>
			<point x="63" y="534"/>
			<point x="62" y="531"/>
			<point x="62" y="363" type="curve" smooth="yes"/>
			<point x="62" y="171" type="line" smooth="yes"/>
			<point x="62" y="36"/>
			<point x="62" y="36"/>
			<point x="26" y="19" type="curve"/>
			<point x="26" y="-1" type="line"/>
		</contour>
	</outline>
</glyph>
<glyph name="etfin" format="2">
	<advance width="337"/>
	<unicode hex="A76B"/>
	<outline>
		<contour>
			<point x="70" y="-290" type="curve"/>
			<point x="70" y="-290" type="line"/>
			<point x="82" y="-290"/>
			<point x="101" y="-277"/>
			<point x="102" y="-258" type="curve"/>
			<point x="68" y="-244"/>
			<point x="91" y="-234"/>
			<point x="115" y="-217" type="curve"/>
			<point x="171" y="-178"/>
			<point x="300" y="-109"/>
			<point x="300" y="-8" type="curve"/>
			<point x="300" y="98"/>
			<point x="200" y="143"/>
			<point x="94" y="110" type="curve"/>
			<point x="156" y="175"/>
			<point x="240" y="253"/>
			<point x="312" y="314" type="curve"/>
			<point x="311" y="376" type="line"/>
			<point x="218" y="367"/>
			<point x="120" y="364"/>
			<point x="33" y="360" type="curve"/>
			<point x="37" y="282" type="line"/>
			<point x="104" y="294"/>
			<point x="181" y="292"/>
			<point x="248" y="293" type="curve"/>
			<point x="160" y="202"/>
			<point x="117" y="170"/>
			<point x="25" y="88" type="curve"/>
			<point x="35" y="72" type="line"/>
			<point x="145" y="121"/>
			<point x="229" y="79"/>
			<point x="229" y="-19" type="curve"/>
			<point x="229" y="-102"/>
			<point x="143" y="-163"/>
			<point x="99" y="-199" type="curve"/>
			<point x="77" y="-217"/>
			<point x="49" y="-235"/>
			<point x="35" y="-252" type="curve"/>
			<point x="35" y="-277"/>
			<point x="52" y="-290"/>
		</contour>
	</outline>
</glyph>
<glyph name="rum" format="2">
	<advance width="652"/>
	<unicode hex="A775"/>
	<outline>
		<contour>
			<point x="306" y="-240" type="line"/>
			<point x="343" y="-177"/>
			<point x="365" y="-101"/>
			<point x="389" y="8" type="curve"/>
			<point x="441" y="1"/>
			<point x="492" y="-6"/>
			<point x="538" y="-10" type="curve"/>
			<point x="568" y="11"/>
			<point x="629" y="83"/>
			<point x="602" y="212" type="curve"/>
			<point x="579" y="212" type="line"/>
			<point x="592" y="118"/>
			<point x="549" y="72"/>
			<point x="501" y="72" type="curve" smooth="yes"/>
			<point x="466" y="72"/>
			<point x="434" y="74"/>
			<point x="403" y="76" type="curve"/>
			<point x="408" y="103"/>
			<point x="414" y="131"/>
			<point x="420" y="162" type="curve" smooth="yes"/>
			<point x="453" y="327"/>
			<point x="461" y="333"/>
			<point x="600" y="347" type="curve"/>
			<point x="600" y="372" type="line"/>
			<point x="538" y="370"/>
			<point x="439" y="370"/>
			<point x="386" y="372" type="curve"/>
			<point x="376" y="212"/>
			<point x="378" y="149"/>
			<point x="368" y="83" type="curve" smooth="yes"/>
			<point x="368" y="81"/>
			<point x="368" y="80"/>
			<point x="367" y="78" type="curve"/>
			<point x="324" y="82"/>
			<point x="282" y="85"/>
			<point x="238" y="85" type="curve" smooth="yes"/>
			<point x="192" y="85"/>
			<point x="153" y="82"/>
			<point x="117" y="77" type="curve"/>
			<point x="168" y="129"/>
			<point x="218" y="191"/>
			<point x="218" y="251" type="curve" smooth="yes"/>
			<point x="218" y="340"/>
			<point x="109" y="389"/>
			<point x="30" y="378" type="curve"/>
			<point x="24" y="360" type="line"/>
			<point x="91" y="352"/>
			<point x="146" y="303"/>
			<point x="146" y="228" type="curve" smooth="yes"/>
			<point x="146" y="148"/>
			<point x="84" y="76"/>
			<point x="25" y="21" type="curve"/>
			<point x="28" y="0" type="line"/>
			<point x="74" y="19"/>
			<point x="118" y="24"/>
			<point x="192" y="24" type="curve" smooth="yes"/>
			<point x="242" y="24"/>
			<point x="297" y="19"/>
			<point x="352" y="12" type="curve"/>
			<point x="327" y="-72"/>
			<point x="281" y="-174"/>
			<point x="231" y="-198" type="curve"/>
			<point x="227" y="-214" type="line"/>
		</contour>
	</outline>
</glyph>
<glyph name="p_macr" format="2">
	<advance width="505"/>
	<unicode hex="E665"/>
	<outline>
		<contour>
			<point x="18" y="-284" type="line"/>
			<point x="49" y="-282"/>
			<point x="72" y="-280"/>
			<point x="113" y="-280" type="curve" smooth="yes"/>
			<point x="144" y="-280"/>
			<point x="167" y="-281"/>
			<point x="193" y="-283" type="curve"/>
			<point x="194" y="-248" type="line"/>
			<point x="153" y="-250"/>
			<point x="143" y="-238"/>
			<point x="140" y="-197" type="curve"/>
			<point x="140" y="-1" type="line"/>
			<point x="163" y="-6"/>
			<point x="205" y="-10"/>
			<point x="241" y="-10" type="curve" smooth="yes"/>
			<point x="370" y="-10"/>
			<point x="480" y="97"/>
			<point x="480" y="211" type="curve" smooth="yes"/>
			<point x="480" y="312"/>
			<point x="403" y="381"/>
			<point x="279" y="381" type="curve" smooth="yes"/>
			<point x="256" y="381"/>
			<point x="185" y="338"/>
			<point x="143" y="314" type="curve"/>
			<point x="142" y="331"/>
			<point x="142" y="350"/>
			<point x="141" y="371" type="curve"/>
			<point x="113" y="370"/>
			<point x="61" y="364"/>
			<point x="15" y="361" type="curve"/>
			<point x="17" y="334" type="line"/>
			<point x="52" y="334"/>
			<point x="60" y="325"/>
			<point x="61" y="301" type="curve" smooth="yes"/>
			<point x="62" y="283"/>
			<point x="62" y="-59"/>
			<point x="59" y="-195" type="curve" smooth="yes"/>
			<point x="58" y="-235"/>
			<point x="50" y="-254"/>
			<point x="20" y="-254" type="curve"/>
		</contour>
		<contour>
			<point x="249" y="27" type="curve" smooth="yes"/>
			<point x="217" y="27"/>
			<point x="162" y="55"/>
			<point x="141" y="93" type="curve"/>
			<point x="142" y="145"/>
			<point x="142" y="186"/>
			<point x="142" y="204" type="curve" smooth="yes"/>
			<point x="142" y="231"/>
			<point x="143" y="256"/>
			<point x="143" y="283" type="curve"/>
			<point x="175" y="300"/>
			<point x="213" y="320"/>
			<point x="250" y="320" type="curve" smooth="yes"/>
			<point x="343" y="320"/>
			<point x="402" y="250"/>
			<point x="402" y="170" type="curve" smooth="yes"/>
			<point x="402" y="79"/>
			<point x="342" y="27"/>
		</contour>
		<contour>
			<point x="322" y="528" type="curve"/>
			<point x="430" y="631" type="line"/>
			<point x="406" y="650" type="line"/>
			<point x="365" y="611"/>
			<point x="338" y="610"/>
			<point x="330" y="610" type="curve" smooth="yes"/>
			<point x="314" y="610"/>
			<point x="273" y="623"/>
			<point x="238" y="636" type="curve"/>
			<point x="164" y="564" type="line"/>
			<point x="184" y="540" type="line"/>
			<point x="198" y="549"/>
			<point x="212" y="559"/>
			<point x="226" y="559" type="curve" smooth="yes"/>
			<point x="245" y="559"/>
			<point x="287" y="540"/>
		</contour>
	</outline>
</glyph>
<glyph name="q_etfin" format="2">
	<advance width="673"/>
	<unicode hex="E8BF"/>
	<outline>
		<contour>
			<point x="364" y="-284" type="curve"/>
			<point x="377" y="-293" type="line"/>
			<point x="469" y="-233" type="line"/>
			<point x="464" y="-193"/>
			<point x="459" y="-126"/>
			<point x="456" y="-48" type="curve"/>
			<point x="538" y="-7"/>
			<point x="657" y="52"/>
			<point x="657" y="120" type="curve"/>
			<point x="657" y="162"/>
			<point x="608" y="182"/>
			<point x="557" y="192" type="curve"/>
			<point x="663" y="282" type="line"/>
			<point x="662" y="296" type="line"/>
			<point x="617" y="320"/>
			<point x="574" y="357"/>
			<point x="550" y="381" type="curve"/>
			<point x="543" y="381" type="line"/>
			<point x="516" y="356"/>
			<point x="488" y="334"/>
			<point x="460" y="315" type="curve"/>
			<point x="462" y="342"/>
			<point x="465" y="367"/>
			<point x="468" y="391" type="curve"/>
			<point x="450" y="398" type="line"/>
			<point x="378" y="341" type="line"/>
			<point x="336" y="355"/>
			<point x="278" y="381"/>
			<point x="257" y="381" type="curve"/>
			<point x="127" y="381"/>
			<point x="25" y="291"/>
			<point x="25" y="171" type="curve"/>
			<point x="25" y="54"/>
			<point x="125" y="-10"/>
			<point x="246" y="-10" type="curve"/>
			<point x="300" y="20"/>
			<point x="341" y="38"/>
			<point x="376" y="50" type="curve"/>
			<point x="378" y="-57"/>
			<point x="372" y="-168"/>
		</contour>
		<contour>
			<point x="248" y="31" type="curve"/>
			<point x="248" y="31" type="line"/>
			<point x="149" y="31"/>
			<point x="115" y="116"/>
			<point x="115" y="186" type="curve"/>
			<point x="115" y="276"/>
			<point x="172" y="341"/>
			<point x="250" y="341" type="curve"/>
			<point x="316" y="341"/>
			<point x="372" y="279"/>
			<point x="373" y="226" type="curve"/>
			<point x="374" y="146" type="line" smooth="yes"/>
			<point x="375" y="99"/>
			<point x="314" y="31"/>
		</contour>
		<contour>
			<point x="455" y="-16" type="curve"/>
			<point x="455" y="-16" type="line"/>
			<point x="453" y="33"/>
			<point x="453" y="86"/>
			<point x="453" y="139" type="curve"/>
			<point x="468" y="144"/>
			<point x="482" y="147"/>
			<point x="494" y="147" type="curve"/>
			<point x="520" y="147"/>
			<point x="573" y="138"/>
			<point x="573" y="102" type="curve"/>
			<point x="573" y="53"/>
			<point x="514" y="6"/>
		</contour>
		<contour>
			<point x="454" y="169" type="curve"/>
			<point x="454" y="169" type="line"/>
			<point x="454" y="208"/>
			<point x="456" y="245"/>
			<point x="458" y="281" type="curve"/>
			<point x="476" y="291"/>
			<point x="493" y="299"/>
			<point x="510" y="305" type="curve"/>
			<point x="531" y="296"/>
			<point x="561" y="277"/>
			<point x="574" y="252" type="curve"/>
			<point x="548" y="218"/>
			<point x="508" y="188"/>
		</contour>
	</outline>
</glyph>
<glyph name="longs_longs" format="2">
	<advance width="476"/>
	<unicode hex="EBA6"/>
	<outline>
		<contour>
			<point x="34" y="18" type="curve"/>
			<point x="34" y="-2" type="line"/>
			<point x="77" y="0"/>
			<point x="135" y="0"/>
			<point x="202" y="-2" type="curve"/>
			<point x="202" y="23" type="line"/>
			<point x="139" y="32"/>
			<point x="138" y="37"/>
			<point x="138" y="92" type="curve"/>
			<point x="140" y="360" type="line" smooth="yes"/>
			<point x="141" y="480"/>
			<point x="146" y="544"/>
			<point x="189" y="585" type="curve"/>
			<point x="227" y="585"/>
			<point x="276" y="570"/>
			<point x="311" y="553" type="curve"/>
			<point x="310" y="550"/>
			<point x="310" y="548"/>
			<point x="310" y="545" type="curve"/>
			<point x="310" y="411"/>
			<point x="313" y="375"/>
			<point x="262" y="336" type="curve"/>
			<point x="262" y="315" type="line"/>
			<point x="306" y="315" type="line"/>
			<point x="306" y="95" type="line" smooth="yes"/>
			<point x="306" y="29"/>
			<point x="306" y="29"/>
			<point x="271" y="18" type="curve"/>
			<point x="271" y="-2" type="line"/>
			<point x="324" y="0"/>
			<point x="382" y="0"/>
			<point x="439" y="-2" type="curve"/>
			<point x="439" y="23" type="line"/>
			<point x="386" y="32"/>
			<point x="385" y="37"/>
			<point x="385" y="92" type="curve"/>
			<point x="385" y="315" type="line" smooth="yes"/>
			<point x="385" y="507"/>
			<point x="386" y="542"/>
			<point x="389" y="574" type="curve"/>
			<point x="401" y="590"/>
			<point x="415" y="603"/>
			<point x="433" y="615" type="curve"/>
			<point x="457" y="594"/>
			<point x="475" y="574"/>
			<point x="484" y="554" type="curve"/>
			<point x="497" y="554" type="line"/>
			<point x="527" y="620" type="line"/>
			<point x="505" y="631"/>
			<point x="481" y="651"/>
			<point x="449" y="679" type="curve"/>
			<point x="440" y="677" type="line"/>
			<point x="415" y="662"/>
			<point x="371" y="633"/>
			<point x="342" y="602" type="curve"/>
			<point x="301" y="619"/>
			<point x="250" y="631"/>
			<point x="222" y="631" type="curve"/>
			<point x="206" y="631"/>
			<point x="63" y="576"/>
			<point x="63" y="476" type="curve"/>
			<point x="63" y="422"/>
			<point x="66" y="375"/>
			<point x="15" y="336" type="curve"/>
			<point x="15" y="315" type="line"/>
			<point x="59" y="315" type="line"/>
			<point x="59" y="95" type="line" smooth="yes"/>
			<point x="59" y="29"/>
			<point x="59" y="29"/>
		</contour>
	</outline>
</glyph>
<glyph name="c_t" format="2">
	<advance width="767"/>
	<unicode hex="EEC5"/>
	<outline>
		<contour>
			<point x="208" y="-10" type="curve"/>
			<point x="208" y="-10" type="line"/>
			<point x="286" y="-10"/>
			<point x="343" y="41"/>
			<point x="379" y="126" type="curve"/>
			<point x="360" y="141" type="line"/>
			<point x="327" y="75"/>
			<point x="291" y="35"/>
			<point x="227" y="35" type="curve"/>
			<point x="153" y="35"/>
			<point x="98" y="93"/>
			<point x="98" y="179" type="curve"/>
			<point x="98" y="264"/>
			<point x="141" y="322"/>
			<point x="202" y="337" type="curve"/>
			<point x="237" y="331"/>
			<point x="266" y="318"/>
			<point x="284" y="307" type="curve"/>
			<point x="335" y="361" type="line"/>
			<point x="334" y="361" type="line"/>
			<point x="345" y="374" type="line"/>
			<point x="299" y="409"/>
			<point x="263" y="457"/>
			<point x="263" y="521" type="curve"/>
			<point x="263" y="590"/>
			<point x="303" y="654"/>
			<point x="374" y="654" type="curve"/>
			<point x="452" y="654"/>
			<point x="503" y="581"/>
			<point x="503" y="491" type="curve"/>
			<point x="503" y="446"/>
			<point x="494" y="405"/>
			<point x="476" y="379" type="curve"/>
			<point x="463" y="364"/>
			<point x="448" y="353"/>
			<point x="430" y="347" type="curve"/>
			<point x="430" y="322" type="line"/>
			<point x="476" y="322" type="line"/>
			<point x="474" y="246"/>
			<point x="472" y="161"/>
			<point x="472" y="106" type="curve"/>
			<point x="472" y="26"/>
			<point x="520" y="-11"/>
			<point x="597" y="-10" type="curve"/>
			<point x="655" y="-9"/>
			<point x="706" y="30"/>
			<point x="752" y="76" type="curve"/>
			<point x="739" y="92" type="line"/>
			<point x="699" y="53"/>
			<point x="641" y="41"/>
			<point x="611" y="41" type="curve"/>
			<point x="558" y="41"/>
			<point x="553" y="85"/>
			<point x="553" y="172" type="curve"/>
			<point x="553" y="223"/>
			<point x="553" y="278"/>
			<point x="554" y="328" type="curve"/>
			<point x="580" y="330"/>
			<point x="648" y="330"/>
			<point x="733" y="322" type="curve"/>
			<point x="743" y="370" type="line"/>
			<point x="560" y="370" type="line"/>
			<point x="564" y="426"/>
			<point x="564" y="450"/>
			<point x="564" y="534" type="curve"/>
			<point x="564" y="606"/>
			<point x="500" y="702"/>
			<point x="376" y="702" type="curve"/>
			<point x="273" y="702"/>
			<point x="217" y="615"/>
			<point x="217" y="541" type="curve"/>
			<point x="217" y="457"/>
			<point x="249" y="416"/>
			<point x="313" y="369" type="curve"/>
			<point x="278" y="378"/>
			<point x="239" y="380"/>
			<point x="203" y="380" type="curve"/>
			<point x="179" y="380"/>
			<point x="25" y="309"/>
			<point x="25" y="164" type="curve"/>
			<point x="25" y="54"/>
			<point x="99" y="-10"/>
		</contour>
	</outline>
</glyph>
<glyph name="f_f" format="2">
	<advance width="506"/>
	<unicode hex="FB00"/>
	<outline>
		<contour>
			<point x="34" y="18" type="curve"/>
			<point x="34" y="-2" type="line"/>
			<point x="77" y="0"/>
			<point x="135" y="0"/>
			<point x="202" y="-2" type="curve"/>
			<point x="202" y="23" type="line"/>
			<point x="139" y="32"/>
			<point x="138" y="37"/>
			<point x="138" y="92" type="curve"/>
			<point x="138" y="315" type="line"/>
			<point x="306" y="315" type="line"/>
			<point x="306" y="95" type="line" smooth="yes"/>
			<point x="306" y="29"/>
			<point x="306" y="29"/>
			<point x="271" y="18" type="curve"/>
			<point x="271" y="-2" type="line"/>
			<point x="324" y="0"/>
			<point x="382" y="0"/>
			<point x="439" y="-2" type="curve"/>
			<point x="439" y="23" type="line"/>
			<point x="386" y="32"/>
			<point x="385" y="37"/>
			<point x="385" y="92" type="curve"/>
			<point x="385" y="315" type="line"/>
			<point x="502" y="315" type="line"/>
			<point x="534" y="349" type="line"/>
			<point x="536" y="358" type="line"/>
			<point x="535" y="360" type="line"/>
			<point x="387" y="360" type="line"/>
			<point x="382" y="469"/>
			<point x="383" y="507"/>
			<point x="383" y="557" type="curve"/>
			<point x="383" y="602"/>
			<point x="411" y="611"/>
			<point x="428" y="611" type="curve"/>
			<point x="461" y="611"/>
			<point x="478" y="585"/>
			<point x="460" y="544" type="curve"/>
			<point x="474" y="537" type="line"/>
			<point x="497" y="555"/>
			<point x="526" y="585"/>
			<point x="526" y="621" type="curve"/>
			<point x="526" y="663"/>
			<point x="481" y="679"/>
			<point x="449" y="679" type="curve"/>
			<point x="409" y="679"/>
			<point x="356" y="642"/>
			<point x="328" y="599" type="curve"/>
			<point x="297" y="623"/>
			<point x="270" y="640"/>
			<point x="222" y="640" type="curve"/>
			<point x="186" y="640"/>
			<point x="63" y="576"/>
			<point x="63" y="476" type="curve"/>
			<point x="63" y="422"/>
			<point x="66" y="375"/>
			<point x="15" y="336" type="curve"/>
			<point x="15" y="315" type="line"/>
			<point x="59" y="315" type="line"/>
			<point x="59" y="95" type="line" smooth="yes"/>
			<point x="59" y="29"/>
			<point x="59" y="29"/>
		</contour>
		<contour>
			<point x="287" y="360" type="curve"/>
			<point x="140" y="360" type="line"/>
			<point x="135" y="480"/>
			<point x="146" y="544"/>
			<point x="189" y="585" type="curve"/>
			<point x="227" y="585"/>
			<point x="276" y="570"/>
			<point x="310" y="553" type="curve"/>
			<point x="310" y="545" type="line" smooth="yes"/>
			<point x="310" y="438"/>
			<point x="312" y="393"/>
		</contour>
	</outline>
</glyph>
<glyph name="f_l" format="2">
	<advance width="475"/>
	<unicode hex="FB02"/>
	<outline>
		<contour>
			<point x="15" y="-2" type="line"/>
			<point x="78" y="0"/>
			<point x="136" y="0"/>
			<point x="203" y="-2" type="curve"/>
			<point x="203" y="23" type="line"/>
			<point x="140" y="32"/>
			<point x="139" y="37"/>
			<point x="139" y="92" type="curve" smooth="yes"/>
			<point x="139" y="316" type="line"/>
			<point x="256" y="316" type="line"/>
			<point x="290" y="358" type="line"/>
			<point x="289" y="360" type="line"/>
			<point x="141" y="360" type="line"/>
			<point x="136" y="480"/>
			<point x="137" y="548"/>
			<point x="160" y="587" type="curve"/>
			<point x="196" y="587"/>
			<point x="261" y="572"/>
			<point x="303" y="556" type="curve"/>
			<point x="338" y="532"/>
			<point x="337" y="515"/>
			<point x="337" y="363" type="curve" smooth="yes"/>
			<point x="337" y="171" type="line" smooth="yes"/>
			<point x="337" y="36"/>
			<point x="337" y="36"/>
			<point x="301" y="19" type="curve"/>
			<point x="301" y="-1" type="line"/>
			<point x="459" y="-2" type="line"/>
			<point x="460" y="23" type="line"/>
			<point x="416" y="26"/>
			<point x="414" y="26"/>
			<point x="414" y="169" type="curve" smooth="yes"/>
			<point x="414" y="323" type="line" smooth="yes"/>
			<point x="414" y="554"/>
			<point x="420" y="610"/>
			<point x="426" y="671" type="curve"/>
			<point x="411" y="678" type="line"/>
			<point x="395" y="660"/>
			<point x="364" y="636"/>
			<point x="333" y="613" type="curve"/>
			<point x="294" y="625"/>
			<point x="227" y="640"/>
			<point x="203" y="640" type="curve" smooth="yes"/>
			<point x="187" y="640"/>
			<point x="64" y="576"/>
			<point x="64" y="476" type="curve" smooth="yes"/>
			<point x="64" y="422"/>
			<point x="67" y="376"/>
			<point x="16" y="337" type="curve"/>
			<point x="16" y="316" type="line"/>
			<point x="60" y="316" type="line"/>
			<point x="60" y="95" type="line" smooth="yes"/>
			<point x="60" y="29"/>
			<point x="60" y="29"/>
			<point x="15" y="18" type="curve"/>
		</contour>
	</outline>
</glyph>
<glyph name="Q.ss01" format="2">
	<advance width="882"/>
	<outline>
		<contour>
			<point x="611" y="-154" type="curve"/>
			<point x="611" y="-154" type="line"/>
			<point x="689" y="-154"/>
			<point x="756" y="-117"/>
			<point x="781" y="-48" type="curve"/>
			<point x="766" y="-33" type="line"/>
			<point x="744" y="-56"/>
			<point x="709" y="-74"/>
			<point x="658" y="-73" type="curve"/>
			<point x="556" y="-71"/>
			<point x="455" y="-48"/>
			<point x="376" y="-5" type="curve"/>
			<point x="397" y="-8"/>
			<point x="419" y="-10"/>
			<point x="441" y="-10" type="curve"/>
			<point x="654" y="-10"/>
			<point x="842" y="133"/>
			<point x="842" y="351" type="curve"/>
			<point x="842" y="577"/>
			<point x="644" y="710"/>
			<point x="441" y="710" type="curve"/>
			<point x="237" y="710"/>
			<point x="40" y="567"/>
			<point x="40" y="351" type="curve"/>
			<point x="40" y="225"/>
			<point x="108" y="133"/>
			<point x="195" y="62" type="curve"/>
			<point x="326" y="-44"/>
			<point x="526" y="-154"/>
		</contour>
		<contour>
			<point x="437" y="29" type="curve"/>
			<point x="437" y="29" type="line"/>
			<point x="269" y="29"/>
			<point x="158" y="167"/>
			<point x="158" y="326" type="curve"/>
			<point x="158" y="497"/>
			<point x="242" y="672"/>
			<point x="451" y="672" type="curve"/>
			<point x="626" y="672"/>
			<point x="727" y="525"/>
			<point x="727" y="350" type="curve"/>
			<point x="727" y="188"/>
			<point x="635" y="29"/>
		</contour>
	</outline>
</glyph>
<glyph name="Q_strok" format="2">
	<advance width="1045"/>
	<outline>
		<contour>
			<point x="580" y="-200" type="curve" smooth="yes"/>
			<point x="748" y="-200"/>
			<point x="867" y="-32"/>
			<point x="960" y="-32" type="curve" smooth="yes"/>
			<point x="997" y="-32"/>
			<point x="1003" y="-63"/>
			<point x="1012" y="-86" type="curve"/>
			<point x="1040" y="-80" type="line"/>
			<point x="1024" y="15" type="line"/>
			<point x="868" y="22"/>
			<point x="800" y="-85"/>
			<point x="662" y="-108" type="curve"/>
			<point x="716" y="-14"/>
			<point x="618" y="16"/>
			<point x="466" y="-45" type="curve"/>
			<point x="468" y="-70" type="line"/>
			<point x="583" y="-25"/>
			<point x="639" y="-62"/>
			<point x="627" y="-112" type="curve"/>
			<point x="620" y="-113"/>
			<point x="614" y="-113"/>
			<point x="607" y="-113" type="curve" smooth="yes"/>
			<point x="522" y="-113"/>
			<point x="469" y="-59"/>
			<point x="461" y="-5" type="curve"/>
			<point x="645" y="21"/>
			<point x="794" y="156"/>
			<point x="794" y="351" type="curve" smooth="yes"/>
			<point x="794" y="567"/>
			<point x="597" y="710"/>
			<point x="393" y="710" type="curve" smooth="yes"/>
			<point x="256" y="710"/>
			<point x="116" y="649"/>
			<point x="40" y="540" type="curve"/>
			<point x="43" y="158" type="line"/>
			<point x="108" y="65"/>
			<point x="219" y="6"/>
			<point x="340" y="-7" type="curve"/>
			<point x="375" y="-135"/>
			<point x="476" y="-200"/>
		</contour>
		<contour>
			<point x="397" y="29" type="curve" smooth="yes"/>
			<point x="199" y="29"/>
			<point x="107" y="188"/>
			<point x="107" y="350" type="curve" smooth="yes"/>
			<point x="107" y="525"/>
			<point x="208" y="672"/>
			<point x="383" y="672" type="curve" smooth="yes"/>
			<point x="592" y="672"/>
			<point x="676" y="497"/>
			<point x="676" y="326" type="curve" smooth="yes"/>
			<point x="676" y="167"/>
			<point x="565" y="29"/>
		</contour>
	</outline>
</glyph>
<glyph name="bardes" format="2">
	<advance width="474"/>
	<outline>
		<contour>
			<point x="48" y="-156" type="line"/>
			<point x="181" y="-112"/>
			<point x="308" y="-80"/>
			<point x="441" y="-40" type="curve"/>
			<point x="454" y="15" type="line"/>
			<point x="449" y="19" type="line"/>
			<point x="315" y="-41"/>
			<point x="174" y="-86"/>
			<point x="20" y="-138" type="curve"/>
			<point x="20" y="-144" type="line"/>
		</contour>
	</outline>
</glyph>
<glyph name="c_dieresis" format="2">
	<advance width="375"/>
	<outline>
		<contour>
			<point x="201" y="-10" type="curve" smooth="yes"/>
			<point x="282" y="-10"/>
			<point x="335" y="41"/>
			<point x="351" y="76" type="curve"/>
			<point x="332" y="91" type="line"/>
			<point x="313" y="58"/>
			<point x="285" y="35"/>
			<point x="229" y="35" type="curve" smooth="yes"/>
			<point x="155" y="35"/>
			<point x="100" y="93"/>
			<point x="100" y="189" type="curve" smooth="yes"/>
			<point x="100" y="254"/>
			<point x="123" y="295"/>
			<point x="154" y="315" type="curve"/>
			<point x="209" y="309"/>
			<point x="268" y="307"/>
			<point x="326" y="307" type="curve"/>
			<point x="370" y="370" type="line"/>
			<point x="368" y="373" type="line"/>
			<point x="329" y="371"/>
			<point x="229" y="378"/>
			<point x="185" y="378" type="curve" smooth="yes"/>
			<point x="161" y="378"/>
			<point x="25" y="309"/>
			<point x="25" y="164" type="curve" smooth="yes"/>
			<point x="25" y="54"/>
			<point x="92" y="-10"/>
		</contour>
		<contour>
			<point x="161" y="446" type="line"/>
			<point x="214" y="500" type="line"/>
			<point x="161" y="553" type="line"/>
			<point x="107" y="500" type="line"/>
		</contour>
		<contour>
			<point x="294" y="446" type="line"/>
			<point x="347" y="500" type="line"/>
			<point x="294" y="553" type="line"/>
			<point x="240" y="500" type="line"/>
		</contour>
	</outline>
</glyph>
<glyph name="etfin_ring" format="2">
	<advance width="744"/>
	<outline>
		<contour>
			<point x="54" y="-88" type="curve"/>
			<point x="54" y="-88" type="line"/>
			<point x="235" y="-88"/>
			<point x="408" y="-10"/>
			<point x="408" y="116" type="curve"/>
			<point x="408" y="209"/>
			<point x="280" y="250"/>
			<point x="205" y="259" type="curve"/>
			<point x="266" y="307"/>
			<point x="390" y="395"/>
			<point x="442" y="451" type="curve"/>
			<point x="442" y="499" type="line"/>
			<point x="344" y="513"/>
			<point x="228" y="550"/>
			<point x="185" y="559" type="curve"/>
			<point x="139" y="550"/>
			<point x="57" y="520"/>
			<point x="20" y="510" type="curve"/>
			<point x="28" y="484" type="line"/>
			<point x="56" y="489"/>
			<point x="94" y="495"/>
			<point x="149" y="495" type="curve"/>
			<point x="189" y="495"/>
			<point x="312" y="454"/>
			<point x="362" y="435" type="curve"/>
			<point x="277" y="349"/>
			<point x="181" y="268"/>
			<point x="44" y="204" type="curve"/>
			<point x="77" y="178" type="line"/>
			<point x="115" y="198"/>
			<point x="133" y="218"/>
			<point x="163" y="218" type="curve"/>
			<point x="216" y="218"/>
			<point x="312" y="177"/>
			<point x="312" y="100" type="curve"/>
			<point x="312" y="27"/>
			<point x="252" y="-25"/>
			<point x="199" y="-42" type="curve"/>
			<point x="156" y="-56"/>
			<point x="107" y="-36"/>
			<point x="67" y="-25" type="curve"/>
			<point x="53" y="-50"/>
			<point x="48" y="-63"/>
		</contour>
		<contour>
			<point x="640" y="276" type="curve"/>
			<point x="640" y="276" type="line"/>
			<point x="691" y="276"/>
			<point x="734" y="322"/>
			<point x="734" y="378" type="curve"/>
			<point x="734" y="434"/>
			<point x="691" y="480"/>
			<point x="640" y="480" type="curve"/>
			<point x="588" y="480"/>
			<point x="545" y="434"/>
			<point x="545" y="378" type="curve"/>
			<point x="545" y="322"/>
			<point x="588" y="276"/>
		</contour>
		<contour>
			<point x="639" y="314" type="curve"/>
			<point x="639" y="314" type="line"/>
			<point x="602" y="314"/>
			<point x="573" y="344"/>
			<point x="573" y="382" type="curve"/>
			<point x="573" y="419"/>
			<point x="602" y="449"/>
			<point x="639" y="449" type="curve"/>
			<point x="676" y="449"/>
			<point x="705" y="419"/>
			<point x="705" y="382" type="curve"/>
			<point x="705" y="344"/>
			<point x="676" y="314"/>
		</contour>
	</outline>
</glyph>
<glyph name="i_dieresis" format="2">
	<advance width="176"/>
	<outline>
		<contour>
			<point x="34" y="0" type="line"/>
			<point x="58" y="2"/>
			<point x="143" y="0"/>
			<point x="177" y="0" type="curve"/>
			<point x="177" y="25" type="line"/>
			<point x="135" y="36"/>
			<point x="136" y="36"/>
			<point x="136" y="97" type="curve" smooth="yes"/>
			<point x="136" y="187"/>
			<point x="135" y="269"/>
			<point x="151" y="366" type="curve"/>
			<point x="139" y="379" type="line"/>
			<point x="102" y="373"/>
			<point x="61" y="371"/>
			<point x="15" y="369" type="curve"/>
			<point x="17" y="340" type="line"/>
			<point x="58" y="339"/>
			<point x="59" y="339"/>
			<point x="58" y="288" type="curve" smooth="yes"/>
			<point x="56" y="96" type="line" smooth="yes"/>
			<point x="55" y="36"/>
			<point x="55" y="35"/>
			<point x="34" y="20" type="curve"/>
		</contour>
		<contour>
			<point x="29" y="506" type="line"/>
			<point x="82" y="560" type="line"/>
			<point x="29" y="613" type="line"/>
			<point x="-25" y="560" type="line"/>
		</contour>
		<contour>
			<point x="148" y="506" type="line"/>
			<point x="201" y="560" type="line"/>
			<point x="148" y="613" type="line"/>
			<point x="94" y="560" type="line"/>
		</contour>
	</outline>
</glyph>
<glyph name="macr" format="2">
	<advance width="296"/>
	<outline>
		<contour>
			<point x="188" y="582" type="curve"/>
			<point x="276" y="653" type="line"/>
			<point x="252" y="672" type="line"/>
			<point x="241" y="665"/>
			<point x="227" y="657"/>
			<point x="219" y="657" type="curve" smooth="yes"/>
			<point x="203" y="657"/>
			<point x="149" y="677"/>
			<point x="114" y="690" type="curve"/>
			<point x="20" y="617" type="line"/>
			<point x="40" y="593" type="line"/>
			<point x="54" y="602"/>
			<point x="68" y="612"/>
			<point x="82" y="612" type="curve" smooth="yes"/>
			<point x="101" y="612"/>
			<point x="153" y="594"/>
		</contour>
	</outline>
</glyph>
<glyph name="q_dieresis" format="2">
	<advance width="499"/>
	<outline>
		<contour>
			<point x="364" y="-284" type="curve"/>
			<point x="377" y="-293" type="line"/>
			<point x="469" y="-233" type="line"/>
			<point x="455" y="-121"/>
			<point x="442" y="200"/>
			<point x="468" y="391" type="curve"/>
			<point x="450" y="398" type="line"/>
			<point x="378" y="341" type="line"/>
			<point x="336" y="355"/>
			<point x="278" y="381"/>
			<point x="257" y="381" type="curve"/>
			<point x="127" y="381"/>
			<point x="25" y="291"/>
			<point x="25" y="171" type="curve"/>
			<point x="25" y="54"/>
			<point x="125" y="-10"/>
			<point x="246" y="-10" type="curve"/>
			<point x="300" y="20"/>
			<point x="341" y="38"/>
			<point x="376" y="50" type="curve"/>
			<point x="378" y="-57"/>
			<point x="372" y="-168"/>
		</contour>
		<contour>
			<point x="248" y="31" type="curve"/>
			<point x="248" y="31" type="line"/>
			<point x="149" y="31"/>
			<point x="115" y="116"/>
			<point x="115" y="186" type="curve"/>
			<point x="115" y="276"/>
			<point x="172" y="341"/>
			<point x="250" y="341" type="curve"/>
			<point x="316" y="341"/>
			<point x="372" y="279"/>
			<point x="373" y="226" type="curve"/>
			<point x="374" y="146" type="line" smooth="yes"/>
			<point x="375" y="99"/>
			<point x="314" y="31"/>
		</contour>
		<contour>
			<point x="185" y="542" type="line"/>
			<point x="240" y="487" type="line"/>
			<point x="283" y="531" type="line"/>
			<point x="327" y="487" type="line"/>
			<point x="381" y="542" type="line"/>
			<point x="327" y="596" type="line"/>
			<point x="283" y="553" type="line"/>
			<point x="240" y="596" type="line"/>
		</contour>
	</outline>
</glyph>
<glyph name="r.ss01" format="2">
	<advance width="376"/>
	<outline>
		<contour>
			<point x="326" y="-12" type="curve"/>
			<point x="355" y="66" type="line"/>
			<point x="353" y="73" type="line"/>
			<point x="269" y="60"/>
			<point x="183" y="56"/>
			<point x="109" y="57" type="curve"/>
			<point x="166" y="113"/>
			<point x="259" y="183"/>
			<point x="259" y="251" type="curve" smooth="yes"/>
			<point x="259" y="358"/>
			<point x="134" y="378"/>
			<point x="30" y="367" type="curve"/>
			<point x="30" y="341" type="line"/>
			<point x="96" y="329"/>
			<point x="174" y="305"/>
			<point x="174" y="219" type="curve" smooth="yes"/>
			<point x="174" y="149"/>
			<point x="84" y="70"/>
			<point x="25" y="24" type="curve"/>
			<point x="28" y="0" type="line"/>
			<point x="127" y="1"/>
			<point x="227" y="-3"/>
		</contour>
	</outline>
</glyph>
<glyph name="s_dieresis" format="2">
	<advance width="356"/>
	<outline>
		<contour>
			<point x="181" y="-10" type="curve" smooth="yes"/>
			<point x="268" y="-10"/>
			<point x="336" y="31"/>
			<point x="336" y="98" type="curve" smooth="yes"/>
			<point x="336" y="178"/>
			<point x="267" y="211"/>
			<point x="191" y="224" type="curve" smooth="yes"/>
			<point x="109" y="238"/>
			<point x="89" y="255"/>
			<point x="89" y="292" type="curve" smooth="yes"/>
			<point x="89" y="329"/>
			<point x="119" y="356"/>
			<point x="165" y="356" type="curve" smooth="yes"/>
			<point x="228" y="356"/>
			<point x="261" y="318"/>
			<point x="291" y="267" type="curve"/>
			<point x="310" y="268" type="line"/>
			<point x="310" y="362" type="line"/>
			<point x="268" y="367"/>
			<point x="243" y="381"/>
			<point x="162" y="381" type="curve" smooth="yes"/>
			<point x="92" y="381"/>
			<point x="30" y="339"/>
			<point x="30" y="269" type="curve" smooth="yes"/>
			<point x="30" y="194"/>
			<point x="72" y="168"/>
			<point x="160" y="150" type="curve" smooth="yes"/>
			<point x="228" y="136"/>
			<point x="270" y="124"/>
			<point x="270" y="77" type="curve" smooth="yes"/>
			<point x="270" y="35"/>
			<point x="227" y="14"/>
			<point x="191" y="14" type="curve" smooth="yes"/>
			<point x="128" y="14"/>
			<point x="92" y="73"/>
			<point x="60" y="121" type="curve"/>
			<point x="41" y="113" type="line"/>
			<point x="64" y="3" type="line"/>
			<point x="107" y="-5"/>
			<point x="145" y="-10"/>
		</contour>
		<contour>
			<point x="109.36" y="486.56" type="line"/>
			<point x="163.42" y="541.64" type="line"/>
			<point x="109.36" y="595.7" type="line"/>
			<point x="54.28" y="541.64" type="line"/>
		</contour>
		<contour>
			<point x="245.36" y="486.56" type="line"/>
			<point x="299.42" y="541.64" type="line"/>
			<point x="245.36" y="595.7" type="line"/>
			<point x="190.28" y="541.64" type="line"/>
		</contour>
	</outline>
</glyph>
<glyph name="z.ss01" format="2">
	<advance width="425"/>
	<outline>
		<contour>
			<point x="20" y="18" type="curve"/>
			<point x="24" y="-2" type="line"/>
			<point x="125" y="2"/>
			<point x="262" y="2"/>
			<point x="363" y="0" type="curve"/>
			<point x="364" y="127" type="line"/>
			<point x="339" y="127" type="line"/>
			<point x="319" y="89"/>
			<point x="298" y="70"/>
			<point x="216" y="68" type="curve"/>
			<point x="106" y="65" type="line"/>
			<point x="202" y="164"/>
			<point x="334" y="287"/>
			<point x="405" y="356" type="curve"/>
			<point x="397" y="379" type="line"/>
			<point x="350" y="375"/>
			<point x="221" y="373"/>
			<point x="74" y="375" type="curve"/>
			<point x="67" y="327"/>
			<point x="56" y="301"/>
			<point x="41" y="257" type="curve"/>
			<point x="66" y="251" type="line"/>
			<point x="89" y="280"/>
			<point x="136" y="298"/>
			<point x="187" y="301" type="curve"/>
			<point x="306" y="308" type="line"/>
			<point x="215" y="211"/>
			<point x="109" y="115"/>
		</contour>
	</outline>
</glyph>
